NotoSansTakri-Regular.ufo
<glyph name="danda-deva" format="2">
  <advance width="325"/>
  <unicode hex="0964"/>
  <outline>
    <contour>
      <point x="205" y="-20" type="line"/>
      <point x="205" y="645" type="line"/>
      <point x="120" y="645" type="line"/>
      <point x="120" y="-20" type="line"/>
    </contour>
  </outline>
</glyph>
<glyph name="dbldanda-deva" format="2">
  <advance width="485"/>
  <unicode hex="0965"/>
  <outline>
    <contour>
      <point x="365" y="-20" type="line"/>
      <point x="365" y="645" type="line"/>
      <point x="280" y="645" type="line"/>
      <point x="280" y="-20" type="line"/>
    </contour>
    <contour>
      <point x="205" y="-20" type="line"/>
      <point x="205" y="645" type="line"/>
      <point x="120" y="645" type="line"/>
      <point x="120" y="-20" type="line"/>
    </contour>
  </outline>
</glyph>
<glyph name="northIndicFractionOneQuarter" format="2">
  <advance width="237"/>
  <unicode hex="A830"/>
  <outline>
    <contour>
      <point x="78" y="0" type="line"/>
      <point x="159" y="0" type="line"/>
      <point x="159" y="622" type="line"/>
      <point x="78" y="622" type="line"/>
    </contour>
  </outline>
</glyph>
<glyph name="northIndicFractionOneEighth" format="2">
  <advance width="622"/>
  <unicode hex="A834"/>
  <outline>
    <contour>
      <point x="60" y="412" type="line"/>
      <point x="583" y="542" type="line"/>
      <point x="563" y="622" type="line"/>
      <point x="40" y="491" type="line"/>
    </contour>
    <contour>
      <point x="60" y="215" type="line"/>
      <point x="583" y="345" type="line"/>
      <point x="563" y="425" type="line"/>
      <point x="40" y="294" type="line"/>
    </contour>
  </outline>
</glyph>
<glyph name="northIndicFractionThreeSixteenths" format="2">
  <advance width="622"/>
  <unicode hex="A835"/>
  <outline>
    <contour>
      <point x="60" y="412" type="line"/>
      <point x="583" y="542" type="line"/>
      <point x="563" y="622" type="line"/>
      <point x="40" y="491" type="line"/>
    </contour>
    <contour>
      <point x="60" y="18" type="line"/>
      <point x="583" y="148" type="line"/>
      <point x="563" y="228" type="line"/>
      <point x="40" y="97" type="line"/>
    </contour>
    <contour>
      <point x="60" y="215" type="line"/>
      <point x="583" y="345" type="line"/>
      <point x="563" y="425" type="line"/>
      <point x="40" y="294" type="line"/>
    </contour>
  </outline>
</glyph>
<glyph name="northIndicQuarterMark" format="2">
  <advance width="460"/>
  <unicode hex="A836"/>
  <outline>
    <contour>
      <point x="230" y="167" type="curve" smooth="yes"/>
      <point x="331" y="167"/>
      <point x="393" y="235"/>
      <point x="393" y="321" type="curve" smooth="yes"/>
      <point x="393" y="407"/>
      <point x="329" y="473"/>
      <point x="230" y="473" type="curve" smooth="yes"/>
      <point x="127" y="473"/>
      <point x="67" y="403"/>
      <point x="67" y="321" type="curve" smooth="yes"/>
      <point x="67" y="230"/>
      <point x="134" y="167"/>
    </contour>
    <contour>
      <point x="230" y="237" type="curve" smooth="yes"/>
      <point x="175" y="237"/>
      <point x="143" y="271"/>
      <point x="143" y="321" type="curve" smooth="yes"/>
      <point x="143" y="367"/>
      <point x="173" y="404"/>
      <point x="230" y="404" type="curve" smooth="yes"/>
      <point x="283" y="404"/>
      <point x="317" y="369"/>
      <point x="317" y="321" type="curve" smooth="yes"/>
      <point x="317" y="271"/>
      <point x="286" y="237"/>
    </contour>
  </outline>
</glyph>
<glyph name="northIndicRupeeMark" format="2">
  <advance width="307"/>
  <unicode hex="A838"/>
  <outline>
    <contour>
      <point x="-61" y="-188" type="curve" smooth="yes"/>
      <point x="199" y="-188"/>
      <point x="246" y="-16"/>
      <point x="246" y="177" type="curve" smooth="yes"/>
      <point x="246" y="322"/>
      <point x="217" y="509"/>
      <point x="182" y="633" type="curve"/>
      <point x="101" y="615" type="line"/>
      <point x="131" y="505"/>
      <point x="164" y="335"/>
      <point x="164" y="180" type="curve" smooth="yes"/>
      <point x="164" y="-10"/>
      <point x="114" y="-115"/>
      <point x="-63" y="-115" type="curve" smooth="yes"/>
      <point x="-89" y="-115"/>
      <point x="-119" y="-111"/>
      <point x="-151" y="-104" type="curve"/>
      <point x="-157" y="-177" type="line"/>
      <point x="-132" y="-182"/>
      <point x="-91" y="-188"/>
    </contour>
  </outline>
</glyph>
<glyph name="a-takr" format="2">
  <advance width="703"/>
  <unicode hex="11680"/>
  <anchor x="350" y="0" name="bottom"/>
  <anchor x="350" y="684" name="top"/>
  <anchor x="480" y="625" name="topright"/>
  <outline>
    <contour>
      <point x="454" y="0" type="curve"/>
      <point x="551" y="0" type="line"/>
      <point x="609" y="72"/>
      <point x="663" y="203"/>
      <point x="663" y="302" type="curve" smooth="yes"/>
      <point x="663" y="413"/>
      <point x="592" y="470"/>
      <point x="510" y="470" type="curve" smooth="yes"/>
      <point x="416" y="470"/>
      <point x="366" y="393"/>
      <point x="338" y="312" type="curve" smooth="yes"/>
      <point x="308" y="226"/>
      <point x="275" y="137"/>
      <point x="212" y="137" type="curve" smooth="yes"/>
      <point x="166" y="137"/>
      <point x="142" y="172"/>
      <point x="142" y="212" type="curve" smooth="yes"/>
      <point x="142" y="260"/>
      <point x="167" y="303"/>
      <point x="194" y="346" type="curve" smooth="yes"/>
      <point x="224" y="393"/>
      <point x="253" y="440"/>
      <point x="253" y="493" type="curve" smooth="yes"/>
      <point x="253" y="515"/>
      <point x="248" y="536"/>
      <point x="242" y="550" type="curve"/>
      <point x="645" y="550" type="line"/>
      <point x="645" y="625" type="line"/>
      <point x="30" y="625" type="line"/>
      <point x="30" y="550" type="line"/>
      <point x="159" y="550" type="line"/>
      <point x="167" y="533"/>
      <point x="170" y="512"/>
      <point x="170" y="490" type="curve" smooth="yes"/>
      <point x="170" y="452"/>
      <point x="148" y="418"/>
      <point x="123" y="381" type="curve" smooth="yes"/>
      <point x="91" y="334"/>
      <point x="57" y="283"/>
      <point x="57" y="214" type="curve" smooth="yes"/>
      <point x="57" y="113"/>
      <point x="125" y="54"/>
      <point x="207" y="54" type="curve" smooth="yes"/>
      <point x="331" y="54"/>
      <point x="375" y="178"/>
      <point x="406" y="267" type="curve" smooth="yes"/>
      <point x="432" y="341"/>
      <point x="461" y="392"/>
      <point x="511" y="392" type="curve" smooth="yes"/>
      <point x="548" y="392"/>
      <point x="578" y="368"/>
      <point x="578" y="298" type="curve" smooth="yes"/>
      <point x="578" y="193"/>
      <point x="527" y="91"/>
    </contour>
  </outline>
</glyph>
<glyph name="i-takr" format="2">
  <advance width="518"/>
  <unicode hex="11682"/>
  <anchor x="280" y="0" name="bottom"/>
  <anchor x="350" y="860" name="top"/>
  <anchor x="480" y="625" name="topright"/>
  <outline>
    <contour>
      <point x="283" y="-10" type="curve" smooth="yes"/>
      <point x="407" y="-10"/>
      <point x="478" y="76"/>
      <point x="478" y="174" type="curve" smooth="yes"/>
      <point x="478" y="269"/>
      <point x="409" y="335"/>
      <point x="315" y="351" type="curve"/>
      <point x="299" y="284" type="line"/>
      <point x="348" y="272"/>
      <point x="393" y="241"/>
      <point x="393" y="174" type="curve" smooth="yes"/>
      <point x="393" y="113"/>
      <point x="356" y="65"/>
      <point x="285" y="65" type="curve" smooth="yes"/>
      <point x="179" y="65"/>
      <point x="125" y="170"/>
      <point x="125" y="330" type="curve" smooth="yes"/>
      <point x="125" y="596"/>
      <point x="262" y="739"/>
      <point x="455" y="754" type="curve"/>
      <point x="434" y="824" type="line"/>
      <point x="191" y="806"/>
      <point x="40" y="603"/>
      <point x="40" y="330" type="curve" smooth="yes"/>
      <point x="40" y="127"/>
      <point x="128" y="-10"/>
    </contour>
    <contour>
      <point x="365" y="429" type="curve" smooth="yes"/>
      <point x="400" y="429"/>
      <point x="430" y="457"/>
      <point x="430" y="494" type="curve" smooth="yes"/>
      <point x="430" y="529"/>
      <point x="400" y="559"/>
      <point x="365" y="559" type="curve" smooth="yes"/>
      <point x="329" y="559"/>
      <point x="300" y="529"/>
      <point x="300" y="494" type="curve" smooth="yes"/>
      <point x="300" y="457"/>
      <point x="329" y="429"/>
    </contour>
  </outline>
</glyph>
<glyph name="ii-takr" format="2">
  <advance width="518"/>
  <unicode hex="11683"/>
  <anchor x="280" y="0" name="bottom"/>
  <anchor x="350" y="860" name="top"/>
  <anchor x="480" y="625" name="topright"/>
  <outline>
    <contour>
      <point x="365" y="389" type="curve" smooth="yes"/>
      <point x="400" y="389"/>
      <point x="430" y="417"/>
      <point x="430" y="454" type="curve" smooth="yes"/>
      <point x="430" y="489"/>
      <point x="400" y="519"/>
      <point x="365" y="519" type="curve" smooth="yes"/>
      <point x="329" y="519"/>
      <point x="300" y="489"/>
      <point x="300" y="454" type="curve" smooth="yes"/>
      <point x="300" y="417"/>
      <point x="329" y="389"/>
    </contour>
    <contour>
      <point x="365" y="549" type="curve" smooth="yes"/>
      <point x="400" y="549"/>
      <point x="430" y="577"/>
      <point x="430" y="614" type="curve" smooth="yes"/>
      <point x="430" y="649"/>
      <point x="400" y="679"/>
      <point x="365" y="679" type="curve" smooth="yes"/>
      <point x="329" y="679"/>
      <point x="300" y="649"/>
      <point x="300" y="614" type="curve" smooth="yes"/>
      <point x="300" y="577"/>
      <point x="329" y="549"/>
    </contour>
    <contour>
      <point x="283" y="-10" type="curve" smooth="yes"/>
      <point x="407" y="-10"/>
      <point x="478" y="76"/>
      <point x="478" y="174" type="curve" smooth="yes"/>
      <point x="478" y="269"/>
      <point x="409" y="335"/>
      <point x="315" y="351" type="curve"/>
      <point x="299" y="284" type="line"/>
      <point x="348" y="272"/>
      <point x="393" y="241"/>
      <point x="393" y="174" type="curve" smooth="yes"/>
      <point x="393" y="113"/>
      <point x="356" y="65"/>
      <point x="285" y="65" type="curve" smooth="yes"/>
      <point x="179" y="65"/>
      <point x="125" y="170"/>
      <point x="125" y="330" type="curve" smooth="yes"/>
      <point x="125" y="596"/>
      <point x="262" y="739"/>
      <point x="455" y="754" type="curve"/>
      <point x="434" y="824" type="line"/>
      <point x="191" y="806"/>
      <point x="40" y="603"/>
      <point x="40" y="330" type="curve" smooth="yes"/>
      <point x="40" y="127"/>
      <point x="128" y="-10"/>
    </contour>
  </outline>
</glyph>
<glyph name="u-takr" format="2">
  <advance width="563"/>
  <unicode hex="11684"/>
  <anchor x="320" y="0" name="bottom"/>
  <anchor x="350" y="860" name="top"/>
  <anchor x="480" y="625" name="topright"/>
  <outline>
    <contour>
      <point x="307" y="-12" type="curve" smooth="yes"/>
      <point x="442" y="-12"/>
      <point x="523" y="66"/>
      <point x="523" y="162" type="curve" smooth="yes"/>
      <point x="523" y="228"/>
      <point x="489" y="272"/>
      <point x="434" y="294" type="curve"/>
      <point x="485" y="317"/>
      <point x="511" y="360"/>
      <point x="511" y="409" type="curve" smooth="yes"/>
      <point x="511" y="500"/>
      <point x="443" y="550"/>
      <point x="347" y="550" type="curve" smooth="yes"/>
      <point x="299" y="550"/>
      <point x="255" y="535"/>
      <point x="225" y="516" type="curve"/>
      <point x="263" y="449" type="line"/>
      <point x="283" y="464"/>
      <point x="313" y="475"/>
      <point x="346" y="475" type="curve" smooth="yes"/>
      <point x="389" y="475"/>
      <point x="426" y="451"/>
      <point x="426" y="410" type="curve" smooth="yes"/>
      <point x="426" y="343"/>
      <point x="361" y="318"/>
      <point x="307" y="318" type="curve" smooth="yes"/>
      <point x="288" y="318" type="line"/>
      <point x="288" y="248" type="line"/>
      <point x="308" y="248" type="line" smooth="yes"/>
      <point x="401" y="248"/>
      <point x="438" y="216"/>
      <point x="438" y="162" type="curve" smooth="yes"/>
      <point x="438" y="96"/>
      <point x="380" y="63"/>
      <point x="309" y="63" type="curve" smooth="yes"/>
      <point x="201" y="63"/>
      <point x="125" y="148"/>
      <point x="125" y="362" type="curve" smooth="yes"/>
      <point x="125" y="563"/>
      <point x="209" y="726"/>
      <point x="455" y="752" type="curve"/>
      <point x="436" y="825" type="line"/>
      <point x="171" y="805"/>
      <point x="40" y="600"/>
      <point x="40" y="366" type="curve" smooth="yes"/>
      <point x="40" y="126"/>
      <point x="129" y="-12"/>
    </contour>
  </outline>
</glyph>
<glyph name="uu-takr" format="2">
  <advance width="563"/>
  <unicode hex="11685"/>
  <anchor x="320" y="0" name="bottom"/>
  <anchor x="350" y="860" name="top"/>
  <anchor x="480" y="625" name="topright"/>
  <outline>
    <contour>
      <point x="308" y="-12" type="curve" smooth="yes"/>
      <point x="446" y="-12"/>
      <point x="523" y="66"/>
      <point x="523" y="162" type="curve" smooth="yes"/>
      <point x="523" y="224"/>
      <point x="479" y="285"/>
      <point x="409" y="297" type="curve"/>
      <point x="415" y="280" type="line"/>
      <point x="470" y="302"/>
      <point x="511" y="346"/>
      <point x="511" y="409" type="curve" smooth="yes"/>
      <point x="511" y="500"/>
      <point x="432" y="550"/>
      <point x="347" y="550" type="curve" smooth="yes"/>
      <point x="293" y="550"/>
      <point x="255" y="535"/>
      <point x="225" y="516" type="curve"/>
      <point x="263" y="449" type="line"/>
      <point x="283" y="467"/>
      <point x="313" y="475"/>
      <point x="336" y="475" type="curve" smooth="yes"/>
      <point x="389" y="475"/>
      <point x="426" y="451"/>
      <point x="426" y="410" type="curve" smooth="yes"/>
      <point x="426" y="340"/>
      <point x="363" y="318"/>
      <point x="307" y="318" type="curve" smooth="yes"/>
      <point x="288" y="318" type="line"/>
      <point x="288" y="248" type="line"/>
      <point x="308" y="248" type="line" smooth="yes"/>
      <point x="401" y="248"/>
      <point x="438" y="220"/>
      <point x="438" y="162" type="curve" smooth="yes"/>
      <point x="438" y="96"/>
      <point x="379" y="63"/>
      <point x="309" y="63" type="curve" smooth="yes"/>
      <point x="201" y="63"/>
      <point x="125" y="148"/>
      <point x="125" y="362" type="curve" smooth="yes"/>
      <point x="125" y="452"/>
      <point x="138" y="553"/>
      <point x="182" y="628" type="curve"/>
      <point x="241" y="600"/>
      <point x="303" y="590"/>
      <point x="347" y="590" type="curve" smooth="yes"/>
      <point x="449" y="590"/>
      <point x="509" y="629"/>
      <point x="509" y="698" type="curve" smooth="yes"/>
      <point x="509" y="770"/>
      <point x="445" y="805"/>
      <point x="364" y="805" type="curve" smooth="yes"/>
      <point x="281" y="805"/>
      <point x="215" y="773"/>
      <point x="164" y="723" type="curve"/>
      <point x="139" y="742"/>
      <point x="116" y="769"/>
      <point x="100" y="803" type="curve"/>
      <point x="17" y="803" type="line"/>
      <point x="40" y="743"/>
      <point x="77" y="699"/>
      <point x="118" y="667" type="curve"/>
      <point x="65" y="586"/>
      <point x="40" y="479"/>
      <point x="40" y="366" type="curve" smooth="yes"/>
      <point x="40" y="126"/>
      <point x="129" y="-12"/>
    </contour>
    <contour>
      <point x="338" y="662" type="curve" smooth="yes"/>
      <point x="291" y="662"/>
      <point x="241" y="669"/>
      <point x="192" y="698" type="curve"/>
      <point x="213" y="673" type="line"/>
      <point x="244" y="711"/>
      <point x="296" y="736"/>
      <point x="362" y="736" type="curve" smooth="yes"/>
      <point x="396" y="736"/>
      <point x="426" y="724"/>
      <point x="426" y="699" type="curve" smooth="yes"/>
      <point x="426" y="678"/>
      <point x="402" y="662"/>
    </contour>
  </outline>
</glyph>
<glyph name="e-takr" format="2">
  <advance width="439"/>
  <unicode hex="11686"/>
  <anchor x="240" y="0" name="bottom"/>
  <anchor x="220" y="684" name="top"/>
  <anchor x="280" y="625" name="topright"/>
  <outline>
    <contour>
      <point x="236" y="-14" type="curve" smooth="yes"/>
      <point x="348" y="-14"/>
      <point x="407" y="66"/>
      <point x="429" y="139" type="curve"/>
      <point x="355" y="164" type="line"/>
      <point x="338" y="104"/>
      <point x="299" y="61"/>
      <point x="236" y="61" type="curve" smooth="yes"/>
      <point x="166" y="61"/>
      <point x="125" y="102"/>
      <point x="125" y="149" type="curve" smooth="yes"/>
      <point x="125" y="216"/>
      <point x="174" y="253"/>
      <point x="242" y="295" type="curve" smooth="yes"/>
      <point x="310" y="337"/>
      <point x="387" y="385"/>
      <point x="387" y="487" type="curve" smooth="yes"/>
      <point x="387" y="571"/>
      <point x="319" y="637"/>
      <point x="217" y="637" type="curve" smooth="yes"/>
      <point x="113" y="637"/>
      <point x="57" y="575"/>
      <point x="30" y="501" type="curve"/>
      <point x="103" y="475" type="line"/>
      <point x="122" y="526"/>
      <point x="160" y="562"/>
      <point x="214" y="562" type="curve" smooth="yes"/>
      <point x="261" y="562"/>
      <point x="303" y="531"/>
      <point x="303" y="481" type="curve" smooth="yes"/>
      <point x="303" y="424"/>
      <point x="262" y="397"/>
      <point x="189" y="352" type="curve" smooth="yes"/>
      <point x="113" y="305"/>
      <point x="41" y="250"/>
      <point x="41" y="147" type="curve" smooth="yes"/>
      <point x="41" y="62"/>
      <point x="105" y="-14"/>
    </contour>
  </outline>
</glyph>
<glyph name="ka-takr" format="2">
  <advance width="723"/>
  <unicode hex="1168A"/>
  <anchor x="361" y="0" name="bottom"/>
  <anchor x="633" y="265" name="bottomright"/>
  <anchor x="359" y="684" name="top"/>
  <anchor x="502" y="648" name="topright"/>
  <outline>
    <contour>
      <point x="198" y="-12" type="curve" smooth="yes"/>
      <point x="278" y="-12"/>
      <point x="340" y="43"/>
      <point x="340" y="194" type="curve" smooth="yes"/>
      <point x="340" y="247"/>
      <point x="325" y="304"/>
      <point x="300" y="360" type="curve"/>
      <point x="318" y="363"/>
      <point x="337" y="365"/>
      <point x="361" y="365" type="curve" smooth="yes"/>
      <point x="383" y="365"/>
      <point x="405" y="363"/>
      <point x="422" y="360" type="curve"/>
      <point x="398" y="304"/>
      <point x="383" y="247"/>
      <point x="383" y="194" type="curve" smooth="yes"/>
      <point x="383" y="43"/>
      <point x="445" y="-12"/>
      <point x="526" y="-12" type="curve" smooth="yes"/>
      <point x="595" y="-12"/>
      <point x="666" y="40"/>
      <point x="666" y="172" type="curve" smooth="yes"/>
      <point x="666" y="270"/>
      <point x="620" y="356"/>
      <point x="530" y="403" type="curve"/>
      <point x="567" y="464"/>
      <point x="619" y="525"/>
      <point x="683" y="582" type="curve"/>
      <point x="635" y="639" type="line"/>
      <point x="571" y="587"/>
      <point x="506" y="512"/>
      <point x="458" y="430" type="curve"/>
      <point x="431" y="436"/>
      <point x="401" y="440"/>
      <point x="359" y="440" type="curve" smooth="yes"/>
      <point x="322" y="440"/>
      <point x="292" y="436"/>
      <point x="264" y="430" type="curve"/>
      <point x="216" y="512"/>
      <point x="151" y="587"/>
      <point x="88" y="639" type="curve"/>
      <point x="40" y="582" type="line"/>
      <point x="104" y="525"/>
      <point x="155" y="464"/>
      <point x="192" y="403" type="curve"/>
      <point x="103" y="356"/>
      <point x="57" y="270"/>
      <point x="57" y="172" type="curve" smooth="yes"/>
      <point x="57" y="40"/>
      <point x="126" y="-12"/>
    </contour>
    <contour>
      <point x="196" y="63" type="curve" smooth="yes"/>
      <point x="161" y="63"/>
      <point x="137" y="101"/>
      <point x="137" y="174" type="curve" smooth="yes"/>
      <point x="137" y="249"/>
      <point x="163" y="305"/>
      <point x="227" y="337" type="curve"/>
      <point x="248" y="287"/>
      <point x="260" y="237"/>
      <point x="260" y="190" type="curve" smooth="yes"/>
      <point x="260" y="103"/>
      <point x="234" y="63"/>
    </contour>
    <contour>
      <point x="527" y="63" type="curve" smooth="yes"/>
      <point x="489" y="63"/>
      <point x="463" y="103"/>
      <point x="463" y="190" type="curve" smooth="yes"/>
      <point x="463" y="237"/>
      <point x="474" y="287"/>
      <point x="496" y="337" type="curve"/>
      <point x="560" y="305"/>
      <point x="586" y="249"/>
      <point x="586" y="173" type="curve" smooth="yes"/>
      <point x="586" y="101"/>
      <point x="562" y="63"/>
    </contour>
  </outline>
</glyph>
<glyph name="gha-takr" format="2">
  <advance width="783"/>
  <unicode hex="1168D"/>
  <anchor x="325" y="0" name="bottom"/>
  <anchor x="723" y="454.556" name="bottomright"/>
  <anchor x="310" y="684" name="top"/>
  <anchor x="510" y="648" name="topright"/>
  <outline>
    <contour>
      <point x="706" y="-20" type="curve"/>
      <point x="743" y="52" type="line"/>
      <point x="715" y="67"/>
      <point x="700" y="92"/>
      <point x="700" y="141" type="curve" smooth="yes"/>
      <point x="700" y="200"/>
      <point x="707" y="243"/>
      <point x="716" y="297" type="curve" smooth="yes"/>
      <point x="725" y="352"/>
      <point x="732" y="408"/>
      <point x="732" y="462" type="curve" smooth="yes"/>
      <point x="732" y="575"/>
      <point x="685" y="625"/>
      <point x="575" y="625" type="curve" smooth="yes"/>
      <point x="457" y="625" type="line"/>
      <point x="473" y="486" type="line" smooth="yes"/>
      <point x="476" y="456"/>
      <point x="478" y="428"/>
      <point x="478" y="406" type="curve" smooth="yes"/>
      <point x="478" y="357"/>
      <point x="461" y="332"/>
      <point x="419" y="332" type="curve" smooth="yes"/>
      <point x="374" y="332"/>
      <point x="355" y="360"/>
      <point x="355" y="418" type="curve" smooth="yes"/>
      <point x="355" y="562" type="line"/>
      <point x="270" y="562" type="line"/>
      <point x="270" y="418" type="line" smooth="yes"/>
      <point x="270" y="361"/>
      <point x="250" y="332"/>
      <point x="206" y="332" type="curve" smooth="yes"/>
      <point x="160" y="332"/>
      <point x="143" y="357"/>
      <point x="143" y="403" type="curve" smooth="yes"/>
      <point x="143" y="420"/>
      <point x="145" y="436"/>
      <point x="148" y="452" type="curve" smooth="yes"/>
      <point x="151" y="469"/>
      <point x="153" y="486"/>
      <point x="153" y="501" type="curve" smooth="yes"/>
      <point x="153" y="550"/>
      <point x="130" y="613"/>
      <point x="60" y="640" type="curve"/>
      <point x="30" y="567" type="line"/>
      <point x="54" y="551"/>
      <point x="68" y="520"/>
      <point x="68" y="493" type="curve" smooth="yes"/>
      <point x="68" y="477"/>
      <point x="66" y="453"/>
      <point x="63" y="437" type="curve" smooth="yes"/>
      <point x="61" y="425"/>
      <point x="59" y="410"/>
      <point x="59" y="396" type="curve" smooth="yes"/>
      <point x="59" y="322"/>
      <point x="97" y="259"/>
      <point x="188" y="259" type="curve" smooth="yes"/>
      <point x="253" y="259"/>
      <point x="286" y="284"/>
      <point x="312" y="320" type="curve"/>
      <point x="338" y="281"/>
      <point x="370" y="259"/>
      <point x="431" y="259" type="curve" smooth="yes"/>
      <point x="533" y="259"/>
      <point x="563" y="333"/>
      <point x="563" y="396" type="curve" smooth="yes"/>
      <point x="563" y="416"/>
      <point x="561" y="440"/>
      <point x="558" y="463" type="curve" smooth="yes"/>
      <point x="547" y="550" type="line"/>
      <point x="586" y="550" type="line" smooth="yes"/>
      <point x="624" y="550"/>
      <point x="647" y="524"/>
      <point x="647" y="456" type="curve" smooth="yes"/>
      <point x="647" y="407"/>
      <point x="643" y="359"/>
      <point x="633" y="302" type="curve" smooth="yes"/>
      <point x="623" y="245"/>
      <point x="616" y="199"/>
      <point x="616" y="136" type="curve" smooth="yes"/>
      <point x="616" y="53"/>
      <point x="650" y="6"/>
    </contour>
  </outline>
</glyph>
<glyph name="ca-takr" format="2">
  <advance width="734"/>
  <unicode hex="1168F"/>
  <anchor x="375" y="0" name="bottom"/>
  <anchor x="664" y="455" name="bottomright"/>
  <anchor x="385" y="684" name="top"/>
  <anchor x="580" y="648" name="topright"/>
  <outline>
    <contour>
      <point x="491" y="-14" type="curve" smooth="yes"/>
      <point x="583" y="-14"/>
      <point x="674" y="32"/>
      <point x="674" y="186" type="curve" smooth="yes"/>
      <point x="674" y="625" type="line"/>
      <point x="29" y="625" type="line"/>
      <point x="29" y="550" type="line"/>
      <point x="207" y="550" type="line"/>
      <point x="207" y="367" type="line" smooth="yes"/>
      <point x="207" y="289"/>
      <point x="206" y="249"/>
      <point x="204" y="202" type="curve"/>
      <point x="224" y="210" type="line"/>
      <point x="199" y="222"/>
      <point x="175" y="228"/>
      <point x="148" y="228" type="curve" smooth="yes"/>
      <point x="66" y="228"/>
      <point x="15" y="170"/>
      <point x="15" y="98" type="curve" smooth="yes"/>
      <point x="15" y="39"/>
      <point x="55" y="-12"/>
      <point x="138" y="-12" type="curve" smooth="yes"/>
      <point x="215" y="-12"/>
      <point x="271" y="38"/>
      <point x="273" y="119" type="curve"/>
      <point x="253" y="107" type="line"/>
      <point x="337" y="31"/>
      <point x="387" y="-14"/>
    </contour>
    <contour>
      <point x="140" y="61" type="curve" smooth="yes"/>
      <point x="113" y="61"/>
      <point x="97" y="79"/>
      <point x="97" y="107" type="curve" smooth="yes"/>
      <point x="97" y="134"/>
      <point x="114" y="155"/>
      <point x="146" y="155" type="curve" smooth="yes"/>
      <point x="172" y="155"/>
      <point x="195" y="145"/>
      <point x="214" y="133" type="curve"/>
      <point x="201" y="186" type="line"/>
      <point x="201" y="98"/>
      <point x="180" y="61"/>
    </contour>
    <contour>
      <point x="489" y="61" type="curve" smooth="yes"/>
      <point x="417" y="61"/>
      <point x="377" y="97"/>
      <point x="272" y="191" type="curve"/>
      <point x="285" y="161" type="line"/>
      <point x="288" y="206"/>
      <point x="292" y="281"/>
      <point x="292" y="367" type="curve" smooth="yes"/>
      <point x="292" y="550" type="line"/>
      <point x="589" y="550" type="line"/>
      <point x="589" y="195" type="line" smooth="yes"/>
      <point x="589" y="96"/>
      <point x="553" y="61"/>
    </contour>
  </outline>
</glyph>
<glyph name="cha-takr" format="2">
  <advance width="653"/>
  <unicode hex="11690"/>
  <anchor x="335" y="0" name="bottom"/>
  <anchor x="563" y="455" name="bottomright"/>
  <anchor x="285" y="684" name="top"/>
  <anchor x="480" y="648" name="topright"/>
  <outline>
    <contour>
      <point x="173" y="-12" type="line"/>
      <point x="202" y="133"/>
      <point x="236" y="217"/>
      <point x="284" y="257" type="curve"/>
      <point x="308" y="126"/>
      <point x="378" y="31"/>
      <point x="491" y="31" type="curve" smooth="yes"/>
      <point x="558" y="31"/>
      <point x="613" y="79"/>
      <point x="613" y="153" type="curve" smooth="yes"/>
      <point x="613" y="233"/>
      <point x="572" y="290"/>
      <point x="494" y="326" type="curve"/>
      <point x="554" y="367"/>
      <point x="588" y="438"/>
      <point x="588" y="505" type="curve" smooth="yes"/>
      <point x="588" y="585"/>
      <point x="543" y="637"/>
      <point x="462" y="637" type="curve" smooth="yes"/>
      <point x="356" y="637"/>
      <point x="286" y="526"/>
      <point x="277" y="365" type="curve"/>
      <point x="138" y="365" type="line"/>
      <point x="179" y="409" type="line" smooth="yes"/>
      <point x="221" y="454"/>
      <point x="239" y="486"/>
      <point x="239" y="529" type="curve" smooth="yes"/>
      <point x="239" y="590"/>
      <point x="185" y="635"/>
      <point x="61" y="635" type="curve"/>
      <point x="49" y="565" type="line"/>
      <point x="134" y="565"/>
      <point x="159" y="544"/>
      <point x="159" y="517" type="curve" smooth="yes"/>
      <point x="159" y="488"/>
      <point x="127" y="452"/>
      <point x="92" y="413" type="curve" smooth="yes"/>
      <point x="30" y="344" type="line"/>
      <point x="54" y="290" type="line"/>
      <point x="214" y="290" type="line"/>
      <point x="154" y="225"/>
      <point x="119" y="123"/>
      <point x="102" y="7" type="curve"/>
    </contour>
    <contour>
      <point x="491" y="105" type="curve" smooth="yes"/>
      <point x="472" y="105"/>
      <point x="453" y="113"/>
      <point x="436" y="129" type="curve" smooth="yes"/>
      <point x="390" y="171"/>
      <point x="371" y="234"/>
      <point x="365" y="290" type="curve"/>
      <point x="373" y="290" type="line" smooth="yes"/>
      <point x="487" y="290"/>
      <point x="528" y="221"/>
      <point x="528" y="155" type="curve" smooth="yes"/>
      <point x="528" y="119"/>
      <point x="509" y="105"/>
    </contour>
    <contour>
      <point x="362" y="365" type="line"/>
      <point x="365" y="433"/>
      <point x="380" y="483"/>
      <point x="402" y="517" type="curve" smooth="yes"/>
      <point x="422" y="548"/>
      <point x="440" y="562"/>
      <point x="464" y="562" type="curve" smooth="yes"/>
      <point x="483" y="562"/>
      <point x="503" y="545"/>
      <point x="503" y="497" type="curve" smooth="yes"/>
      <point x="503" y="412"/>
      <point x="449" y="365"/>
      <point x="375" y="365" type="curve" smooth="yes"/>
    </contour>
  </outline>
</glyph>
<glyph name="ja-takr" format="2">
  <advance width="606"/>
  <unicode hex="11691"/>
  <anchor x="290" y="0" name="bottom"/>
  <anchor x="516" y="290" name="bottomright"/>
  <anchor x="310" y="684" name="top"/>
  <anchor x="430" y="648" name="topright"/>
  <outline>
    <contour>
      <point x="145" y="-12" type="curve" smooth="yes"/>
      <point x="320" y="-12"/>
      <point x="391" y="80"/>
      <point x="391" y="179" type="curve" smooth="yes"/>
      <point x="391" y="241"/>
      <point x="360" y="288"/>
      <point x="309" y="320" type="curve"/>
      <point x="322" y="322"/>
      <point x="345" y="323"/>
      <point x="360" y="323" type="curve" smooth="yes"/>
      <point x="417" y="323"/>
      <point x="461" y="296"/>
      <point x="461" y="195" type="curve" smooth="yes"/>
      <point x="461" y="0" type="line"/>
      <point x="546" y="0" type="line"/>
      <point x="546" y="201" type="line" smooth="yes"/>
      <point x="546" y="350"/>
      <point x="465" y="396"/>
      <point x="381" y="396" type="curve" smooth="yes"/>
      <point x="363" y="396"/>
      <point x="326" y="391"/>
      <point x="313" y="388" type="curve"/>
      <point x="323" y="378" type="line"/>
      <point x="353" y="401"/>
      <point x="366" y="439"/>
      <point x="366" y="480" type="curve" smooth="yes"/>
      <point x="366" y="575"/>
      <point x="281" y="637"/>
      <point x="145" y="637" type="curve" smooth="yes"/>
      <point x="115" y="637"/>
      <point x="69" y="633"/>
      <point x="43" y="630" type="curve"/>
      <point x="50" y="554" type="line"/>
      <point x="73" y="558"/>
      <point x="100" y="562"/>
      <point x="130" y="562" type="curve" smooth="yes"/>
      <point x="216" y="562"/>
      <point x="281" y="537"/>
      <point x="281" y="466" type="curve" smooth="yes"/>
      <point x="281" y="414"/>
      <point x="250" y="363"/>
      <point x="155" y="363" type="curve" smooth="yes"/>
      <point x="93" y="363" type="line"/>
      <point x="93" y="288" type="line"/>
      <point x="155" y="288" type="line" smooth="yes"/>
      <point x="260" y="288"/>
      <point x="306" y="245"/>
      <point x="306" y="180" type="curve" smooth="yes"/>
      <point x="306" y="103"/>
      <point x="248" y="63"/>
      <point x="150" y="63" type="curve" smooth="yes"/>
      <point x="116" y="63"/>
      <point x="89" y="64"/>
      <point x="52" y="69" type="curve"/>
      <point x="40" y="-6" type="line"/>
      <point x="87" y="-12"/>
      <point x="131" y="-12"/>
    </contour>
  </outline>
</glyph>
<glyph name="jha-takr" format="2">
  <advance width="504"/>
  <unicode hex="11692"/>
  <anchor x="240" y="0" name="bottom"/>
  <anchor x="454" y="345" name="bottomright"/>
  <anchor x="260" y="684" name="top"/>
  <anchor x="380" y="648" name="topright"/>
  <outline>
    <contour>
      <point x="44" y="-12" type="line"/>
      <point x="253" y="38"/>
      <point x="494" y="159"/>
      <point x="494" y="305" type="curve" smooth="yes"/>
      <point x="494" y="375"/>
      <point x="446" y="428"/>
      <point x="353" y="428" type="curve" smooth="yes"/>
      <point x="300" y="428"/>
      <point x="242" y="410"/>
      <point x="191" y="373" type="curve"/>
      <point x="208" y="371" type="line"/>
      <point x="228" y="428"/>
      <point x="238" y="467"/>
      <point x="238" y="516" type="curve" smooth="yes"/>
      <point x="238" y="577"/>
      <point x="206" y="628"/>
      <point x="70" y="635" type="curve"/>
      <point x="58" y="565" type="line"/>
      <point x="157" y="562"/>
      <point x="158" y="525"/>
      <point x="158" y="505" type="curve" smooth="yes"/>
      <point x="158" y="482"/>
      <point x="155" y="458"/>
      <point x="146" y="416" type="curve" smooth="yes"/>
      <point x="129" y="333" type="line"/>
      <point x="180" y="298" type="line"/>
      <point x="230" y="328"/>
      <point x="290" y="353"/>
      <point x="349" y="353" type="curve" smooth="yes"/>
      <point x="390" y="353"/>
      <point x="409" y="332"/>
      <point x="409" y="300" type="curve" smooth="yes"/>
      <point x="409" y="213"/>
      <point x="232" y="109"/>
      <point x="20" y="54" type="curve"/>
    </contour>
  </outline>
</glyph>
<glyph name="tta-takr" format="2">
  <advance width="534"/>
  <unicode hex="11694"/>
  <anchor x="275" y="0" name="bottom"/>
  <anchor x="374" y="560" name="bottomright"/>
  <anchor x="220" y="684" name="top"/>
  <anchor x="350" y="648" name="topright"/>
  <outline>
    <contour>
      <point x="269" y="-12" type="curve" smooth="yes"/>
      <point x="384" y="-12"/>
      <point x="473" y="51"/>
      <point x="529" y="126" type="curve"/>
      <point x="472" y="169" type="line"/>
      <point x="422" y="106"/>
      <point x="359" y="63"/>
      <point x="275" y="63" type="curve" smooth="yes"/>
      <point x="166" y="63"/>
      <point x="115" y="126"/>
      <point x="115" y="213" type="curve" smooth="yes"/>
      <point x="115" y="342"/>
      <point x="253" y="388"/>
      <point x="382" y="392" type="curve"/>
      <point x="382" y="625" type="line"/>
      <point x="50" y="625" type="line"/>
      <point x="50" y="550" type="line"/>
      <point x="297" y="550" type="line"/>
      <point x="297" y="457" type="line"/>
      <point x="171" y="439"/>
      <point x="30" y="358"/>
      <point x="30" y="208" type="curve" smooth="yes"/>
      <point x="30" y="74"/>
      <point x="124" y="-12"/>
    </contour>
  </outline>
</glyph>
<glyph name="ttha-takr" format="2">
  <advance width="515"/>
  <unicode hex="11695"/>
  <anchor x="265" y="0" name="bottom"/>
  <anchor x="455" y="195" name="bottomright"/>
  <anchor x="230" y="684" name="top"/>
  <anchor x="365" y="648" name="topright"/>
  <outline>
    <contour>
      <point x="255" y="-12" type="curve" smooth="yes"/>
      <point x="402" y="-12"/>
      <point x="475" y="59"/>
      <point x="475" y="163" type="curve" smooth="yes"/>
      <point x="475" y="239"/>
      <point x="428" y="297"/>
      <point x="324" y="356" type="curve"/>
      <point x="359" y="387"/>
      <point x="386" y="435"/>
      <point x="386" y="481" type="curve" smooth="yes"/>
      <point x="386" y="578"/>
      <point x="312" y="637"/>
      <point x="219" y="637" type="curve" smooth="yes"/>
      <point x="168" y="637"/>
      <point x="123" y="621"/>
      <point x="95" y="597" type="curve"/>
      <point x="147" y="542" type="line"/>
      <point x="165" y="554"/>
      <point x="189" y="562"/>
      <point x="215" y="562" type="curve" smooth="yes"/>
      <point x="262" y="562"/>
      <point x="302" y="533"/>
      <point x="302" y="486" type="curve" smooth="yes"/>
      <point x="302" y="422"/>
      <point x="248" y="389"/>
      <point x="190" y="353" type="curve" smooth="yes"/>
      <point x="119" y="309"/>
      <point x="40" y="260"/>
      <point x="40" y="157" type="curve" smooth="yes"/>
      <point x="40" y="57"/>
      <point x="122" y="-12"/>
    </contour>
    <contour>
      <point x="259" y="63" type="curve" smooth="yes"/>
      <point x="168" y="63"/>
      <point x="125" y="98"/>
      <point x="125" y="163" type="curve" smooth="yes"/>
      <point x="125" y="236"/>
      <point x="193" y="274"/>
      <point x="258" y="310" type="curve"/>
      <point x="325" y="273"/>
      <point x="390" y="228"/>
      <point x="390" y="162" type="curve" smooth="yes"/>
      <point x="390" y="98"/>
      <point x="347" y="63"/>
    </contour>
  </outline>
</glyph>
<glyph name="ddha-takr" format="2">
  <advance width="707"/>
  <unicode hex="11697"/>
  <anchor x="360" y="0" name="bottom"/>
  <anchor x="667" y="275" name="bottomright"/>
  <anchor x="355" y="684" name="top"/>
  <anchor x="510" y="648" name="topright"/>
  <outline>
    <contour>
      <point x="495" y="-14" type="curve" smooth="yes"/>
      <point x="598" y="-14"/>
      <point x="687" y="38"/>
      <point x="687" y="201" type="curve" smooth="yes"/>
      <point x="687" y="339"/>
      <point x="633" y="383"/>
      <point x="553" y="383" type="curve" smooth="yes"/>
      <point x="482" y="383"/>
      <point x="429" y="328"/>
      <point x="429" y="254" type="curve" smooth="yes"/>
      <point x="429" y="175"/>
      <point x="489" y="125"/>
      <point x="581" y="98" type="curve"/>
      <point x="560" y="67"/>
      <point x="528" y="61"/>
      <point x="495" y="61" type="curve" smooth="yes"/>
      <point x="438" y="61"/>
      <point x="393" y="98"/>
      <point x="298" y="178" type="curve"/>
      <point x="305" y="232"/>
      <point x="307" y="298"/>
      <point x="307" y="378" type="curve" smooth="yes"/>
      <point x="307" y="625" type="line"/>
      <point x="44" y="625" type="line"/>
      <point x="44" y="550" type="line"/>
      <point x="222" y="550" type="line"/>
      <point x="222" y="387" type="line" smooth="yes"/>
      <point x="222" y="318"/>
      <point x="221" y="263"/>
      <point x="219" y="219" type="curve"/>
      <point x="201" y="225"/>
      <point x="182" y="228"/>
      <point x="163" y="228" type="curve" smooth="yes"/>
      <point x="77" y="228"/>
      <point x="30" y="176"/>
      <point x="30" y="108" type="curve" smooth="yes"/>
      <point x="30" y="43"/>
      <point x="68" y="-12"/>
      <point x="150" y="-12" type="curve" smooth="yes"/>
      <point x="227" y="-12"/>
      <point x="277" y="28"/>
      <point x="286" y="118" type="curve"/>
      <point x="268" y="103" type="line"/>
      <point x="352" y="26"/>
      <point x="404" y="-14"/>
    </contour>
    <contour>
      <point x="156" y="61" type="curve" smooth="yes"/>
      <point x="130" y="61"/>
      <point x="112" y="79"/>
      <point x="112" y="108" type="curve" smooth="yes"/>
      <point x="112" y="136"/>
      <point x="130" y="155"/>
      <point x="161" y="155" type="curve" smooth="yes"/>
      <point x="187" y="155"/>
      <point x="210" y="145"/>
      <point x="229" y="133" type="curve"/>
      <point x="216" y="186" type="line"/>
      <point x="212" y="88"/>
      <point x="189" y="61"/>
    </contour>
    <contour>
      <point x="604" y="170" type="curve"/>
      <point x="547" y="186"/>
      <point x="511" y="211"/>
      <point x="511" y="261" type="curve" smooth="yes"/>
      <point x="511" y="290"/>
      <point x="526" y="310"/>
      <point x="553" y="310" type="curve" smooth="yes"/>
      <point x="582" y="310"/>
      <point x="605" y="292"/>
      <point x="605" y="205" type="curve" smooth="yes"/>
      <point x="605" y="188"/>
      <point x="605" y="179"/>
    </contour>
  </outline>
</glyph>
<glyph name="ta-takr" format="2">
  <advance width="431"/>
  <unicode hex="11699"/>
  <anchor x="175" y="0" name="bottom"/>
  <anchor x="351" y="455" name="bottomright"/>
  <anchor x="185" y="684" name="top"/>
  <anchor x="380" y="648" name="topright"/>
  <outline>
    <contour>
      <point x="145" y="-12" type="curve" smooth="yes"/>
      <point x="320" y="-12"/>
      <point x="391" y="80"/>
      <point x="391" y="179" type="curve" smooth="yes"/>
      <point x="391" y="251"/>
      <point x="349" y="304"/>
      <point x="283" y="334" type="curve"/>
      <point x="333" y="364"/>
      <point x="366" y="411"/>
      <point x="366" y="480" type="curve" smooth="yes"/>
      <point x="366" y="575"/>
      <point x="281" y="637"/>
      <point x="145" y="637" type="curve" smooth="yes"/>
      <point x="116" y="637"/>
      <point x="89" y="636"/>
      <point x="43" y="630" type="curve"/>
      <point x="50" y="554" type="line"/>
      <point x="74" y="558"/>
      <point x="100" y="562"/>
      <point x="130" y="562" type="curve" smooth="yes"/>
      <point x="216" y="562"/>
      <point x="281" y="537"/>
      <point x="281" y="476" type="curve" smooth="yes"/>
      <point x="281" y="410"/>
      <point x="238" y="363"/>
      <point x="152" y="363" type="curve" smooth="yes"/>
      <point x="93" y="363" type="line"/>
      <point x="93" y="288" type="line"/>
      <point x="155" y="288" type="line" smooth="yes"/>
      <point x="260" y="288"/>
      <point x="306" y="245"/>
      <point x="306" y="180" type="curve" smooth="yes"/>
      <point x="306" y="103"/>
      <point x="248" y="63"/>
      <point x="150" y="63" type="curve" smooth="yes"/>
      <point x="116" y="63"/>
      <point x="89" y="64"/>
      <point x="52" y="69" type="curve"/>
      <point x="40" y="-6" type="line"/>
      <point x="85" y="-11"/>
      <point x="111" y="-12"/>
    </contour>
  </outline>
</glyph>
<glyph name="tha-takr" format="2">
  <advance width="590"/>
  <unicode hex="1169A"/>
  <anchor x="260" y="0" name="bottom"/>
  <anchor x="500" y="455" name="bottomright"/>
  <anchor x="285" y="684" name="top"/>
  <anchor x="440" y="648" name="topright"/>
  <outline>
    <contour>
      <point x="424" y="0" type="line"/>
      <point x="509" y="0" type="line"/>
      <point x="509" y="550" type="line"/>
      <point x="550" y="550" type="line"/>
      <point x="550" y="625" type="line"/>
      <point x="30" y="625" type="line"/>
      <point x="30" y="550" type="line"/>
      <point x="90" y="550" type="line"/>
      <point x="96" y="529"/>
      <point x="101" y="506"/>
      <point x="101" y="490" type="curve" smooth="yes"/>
      <point x="101" y="440"/>
      <point x="83" y="403"/>
      <point x="64" y="365" type="curve" smooth="yes"/>
      <point x="47" y="331"/>
      <point x="30" y="295"/>
      <point x="30" y="251" type="curve" smooth="yes"/>
      <point x="30" y="161"/>
      <point x="101" y="98"/>
      <point x="242" y="98" type="curve" smooth="yes"/>
      <point x="321" y="98"/>
      <point x="389" y="123"/>
      <point x="424" y="154" type="curve"/>
    </contour>
    <contour>
      <point x="254" y="173" type="curve" smooth="yes"/>
      <point x="159" y="173"/>
      <point x="115" y="201"/>
      <point x="115" y="255" type="curve" smooth="yes"/>
      <point x="115" y="291"/>
      <point x="137" y="337"/>
      <point x="157" y="379" type="curve"/>
      <point x="413" y="252" type="line"/>
      <point x="398" y="214"/>
      <point x="325" y="173"/>
    </contour>
    <contour>
      <point x="424" y="326" type="line"/>
      <point x="180" y="447" type="line"/>
      <point x="183" y="461"/>
      <point x="186" y="475"/>
      <point x="186" y="490" type="curve" smooth="yes"/>
      <point x="186" y="516"/>
      <point x="183" y="535"/>
      <point x="178" y="550" type="curve"/>
      <point x="424" y="550" type="line"/>
    </contour>
  </outline>
</glyph>
<glyph name="da-takr" format="2">
  <advance width="749"/>
  <unicode hex="1169B"/>
  <anchor x="360" y="0" name="bottom"/>
  <anchor x="679" y="455" name="bottomright"/>
  <anchor x="380" y="684" name="top"/>
  <anchor x="657" y="648" name="topright"/>
  <outline>
    <contour>
      <point x="494" y="-14" type="curve" smooth="yes"/>
      <point x="595" y="-14"/>
      <point x="689" y="44"/>
      <point x="689" y="186" type="curve" smooth="yes"/>
      <point x="689" y="625" type="line"/>
      <point x="604" y="625" type="line"/>
      <point x="604" y="195" type="line" smooth="yes"/>
      <point x="604" y="96"/>
      <point x="555" y="61"/>
      <point x="495" y="61" type="curve" smooth="yes"/>
      <point x="438" y="61"/>
      <point x="393" y="98"/>
      <point x="298" y="178" type="curve"/>
      <point x="305" y="232"/>
      <point x="307" y="298"/>
      <point x="307" y="378" type="curve" smooth="yes"/>
      <point x="307" y="625" type="line"/>
      <point x="44" y="625" type="line"/>
      <point x="44" y="550" type="line"/>
      <point x="222" y="550" type="line"/>
      <point x="222" y="387" type="line" smooth="yes"/>
      <point x="222" y="318"/>
      <point x="221" y="263"/>
      <point x="218" y="219" type="curve"/>
      <point x="200" y="225"/>
      <point x="181" y="228"/>
      <point x="162" y="228" type="curve" smooth="yes"/>
      <point x="76" y="228"/>
      <point x="29" y="176"/>
      <point x="29" y="108" type="curve" smooth="yes"/>
      <point x="29" y="43"/>
      <point x="67" y="-12"/>
      <point x="149" y="-12" type="curve" smooth="yes"/>
      <point x="226" y="-12"/>
      <point x="276" y="28"/>
      <point x="285" y="118" type="curve"/>
      <point x="267" y="103" type="line"/>
      <point x="351" y="26"/>
      <point x="403" y="-14"/>
    </contour>
    <contour>
      <point x="156" y="61" type="curve" smooth="yes"/>
      <point x="130" y="61"/>
      <point x="112" y="79"/>
      <point x="112" y="108" type="curve" smooth="yes"/>
      <point x="112" y="136"/>
      <point x="130" y="155"/>
      <point x="161" y="155" type="curve" smooth="yes"/>
      <point x="187" y="155"/>
      <point x="210" y="145"/>
      <point x="229" y="133" type="curve"/>
      <point x="216" y="186" type="line"/>
      <point x="212" y="88"/>
      <point x="189" y="61"/>
    </contour>
  </outline>
</glyph>
<glyph name="dha-takr" format="2">
  <advance width="603"/>
  <unicode hex="1169C"/>
  <anchor x="275" y="0" name="bottom"/>
  <anchor x="513" y="455" name="bottomright"/>
  <anchor x="280" y="684" name="top"/>
  <anchor x="450" y="648" name="topright"/>
  <outline>
    <contour>
      <point x="265" y="-12" type="curve" smooth="yes"/>
      <point x="396" y="-12"/>
      <point x="522" y="46"/>
      <point x="522" y="230" type="curve" smooth="yes"/>
      <point x="522" y="550" type="line"/>
      <point x="562" y="550" type="line"/>
      <point x="562" y="625" type="line"/>
      <point x="30" y="625" type="line"/>
      <point x="30" y="550" type="line"/>
      <point x="92" y="550" type="line"/>
      <point x="101" y="530"/>
      <point x="114" y="485"/>
      <point x="114" y="440" type="curve" smooth="yes"/>
      <point x="114" y="389"/>
      <point x="98" y="349"/>
      <point x="80" y="306" type="curve" smooth="yes"/>
      <point x="61" y="261"/>
      <point x="43" y="214"/>
      <point x="43" y="160" type="curve" smooth="yes"/>
      <point x="43" y="66"/>
      <point x="102" y="-12"/>
    </contour>
    <contour>
      <point x="267" y="63" type="curve" smooth="yes"/>
      <point x="174" y="63"/>
      <point x="128" y="101"/>
      <point x="128" y="165" type="curve" smooth="yes"/>
      <point x="128" y="205"/>
      <point x="144" y="246"/>
      <point x="164" y="293" type="curve" smooth="yes"/>
      <point x="182" y="335"/>
      <point x="199" y="381"/>
      <point x="199" y="440" type="curve" smooth="yes"/>
      <point x="199" y="492"/>
      <point x="184" y="536"/>
      <point x="178" y="550" type="curve"/>
      <point x="437" y="550" type="line"/>
      <point x="437" y="230" type="line" smooth="yes"/>
      <point x="437" y="129"/>
      <point x="383" y="63"/>
    </contour>
  </outline>
</glyph>
<glyph name="na-takr" format="2">
  <advance width="490"/>
  <unicode hex="1169D"/>
  <anchor x="235" y="0" name="bottom"/>
  <anchor x="380" y="370" name="bottomright"/>
  <anchor x="245" y="684" name="top"/>
  <anchor x="380" y="648" name="topright"/>
  <outline>
    <contour>
      <point x="325" y="0" type="line"/>
      <point x="410" y="0" type="line"/>
      <point x="410" y="323" type="line" smooth="yes"/>
      <point x="410" y="400"/>
      <point x="359" y="472"/>
      <point x="241" y="472" type="curve" smooth="yes"/>
      <point x="236" y="472"/>
      <point x="231" y="472"/>
      <point x="226" y="471" type="curve"/>
      <point x="226" y="625" type="line"/>
      <point x="10" y="625" type="line"/>
      <point x="10" y="550" type="line"/>
      <point x="141" y="550" type="line"/>
      <point x="141" y="455" type="line"/>
      <point x="91" y="437"/>
      <point x="56" y="402"/>
      <point x="56" y="364" type="curve" smooth="yes"/>
      <point x="56" y="322"/>
      <point x="140" y="286"/>
      <point x="187" y="286" type="curve" smooth="yes"/>
      <point x="213" y="286"/>
      <point x="226" y="314"/>
      <point x="226" y="350" type="curve" smooth="yes"/>
      <point x="226" y="399" type="line"/>
      <point x="236" y="399" type="line" smooth="yes"/>
      <point x="275" y="399"/>
      <point x="325" y="380"/>
      <point x="325" y="320" type="curve" smooth="yes"/>
    </contour>
  </outline>
</glyph>
<glyph name="bha-takr" format="2">
  <advance width="491"/>
  <unicode hex="116A1"/>
  <anchor x="225" y="0" name="bottom"/>
  <anchor x="411" y="455" name="bottomright"/>
  <anchor x="230" y="684" name="top"/>
  <anchor x="430" y="648" name="topright"/>
  <outline>
    <contour>
      <point x="209" y="-12" type="curve" smooth="yes"/>
      <point x="356" y="-12"/>
      <point x="451" y="77"/>
      <point x="451" y="204" type="curve" smooth="yes"/>
      <point x="451" y="255"/>
      <point x="436" y="296"/>
      <point x="412" y="328" type="curve"/>
      <point x="428" y="359"/>
      <point x="438" y="397"/>
      <point x="438" y="441" type="curve" smooth="yes"/>
      <point x="438" y="541"/>
      <point x="369" y="637"/>
      <point x="217" y="637" type="curve" smooth="yes"/>
      <point x="155" y="637"/>
      <point x="95" y="615"/>
      <point x="54" y="582" type="curve"/>
      <point x="104" y="523" type="line"/>
      <point x="134" y="546"/>
      <point x="175" y="562"/>
      <point x="220" y="562" type="curve" smooth="yes"/>
      <point x="307" y="562"/>
      <point x="353" y="507"/>
      <point x="353" y="433" type="curve" smooth="yes"/>
      <point x="353" y="415"/>
      <point x="351" y="397"/>
      <point x="346" y="382" type="curve"/>
      <point x="308" y="401"/>
      <point x="272" y="410"/>
      <point x="226" y="410" type="curve" smooth="yes"/>
      <point x="156" y="410"/>
      <point x="93" y="381"/>
      <point x="93" y="322" type="curve" smooth="yes"/>
      <point x="93" y="265"/>
      <point x="137" y="230"/>
      <point x="223" y="230" type="curve" smooth="yes"/>
      <point x="281" y="230"/>
      <point x="324" y="242"/>
      <point x="357" y="265" type="curve"/>
      <point x="363" y="248"/>
      <point x="366" y="228"/>
      <point x="366" y="206" type="curve" smooth="yes"/>
      <point x="366" y="113"/>
      <point x="305" y="63"/>
      <point x="215" y="63" type="curve" smooth="yes"/>
      <point x="166" y="63"/>
      <point x="112" y="70"/>
      <point x="66" y="102" type="curve"/>
      <point x="30" y="40" type="line"/>
      <point x="78" y="6"/>
      <point x="138" y="-12"/>
    </contour>
    <contour>
      <point x="234" y="295" type="curve" smooth="yes"/>
      <point x="188" y="295"/>
      <point x="168" y="305"/>
      <point x="168" y="323" type="curve" smooth="yes"/>
      <point x="168" y="340"/>
      <point x="195" y="349"/>
      <point x="234" y="349" type="curve" smooth="yes"/>
      <point x="284" y="349"/>
      <point x="309" y="332"/>
      <point x="330" y="315" type="curve"/>
      <point x="339" y="341" type="line"/>
      <point x="308" y="312"/>
      <point x="277" y="295"/>
    </contour>
  </outline>
</glyph>
<glyph name="ya-takr" format="2">
  <advance width="590"/>
  <unicode hex="116A3"/>
  <anchor x="265" y="0" name="bottom"/>
  <anchor x="500" y="455" name="bottomright"/>
  <anchor x="300" y="684" name="top"/>
  <anchor x="440" y="648" name="topright"/>
  <outline>
    <contour>
      <point x="424" y="0" type="line"/>
      <point x="509" y="0" type="line"/>
      <point x="509" y="550" type="line"/>
      <point x="550" y="550" type="line"/>
      <point x="550" y="625" type="line"/>
      <point x="30" y="625" type="line"/>
      <point x="30" y="550" type="line"/>
      <point x="123" y="550" type="line"/>
      <point x="83" y="572" type="line"/>
      <point x="92" y="547"/>
      <point x="101" y="512"/>
      <point x="101" y="490" type="curve" smooth="yes"/>
      <point x="101" y="441"/>
      <point x="83" y="404"/>
      <point x="65" y="367" type="curve" smooth="yes"/>
      <point x="47" y="331"/>
      <point x="30" y="296"/>
      <point x="30" y="251" type="curve" smooth="yes"/>
      <point x="30" y="164"/>
      <point x="101" y="98"/>
      <point x="242" y="98" type="curve" smooth="yes"/>
      <point x="321" y="98"/>
      <point x="383" y="117"/>
      <point x="424" y="154" type="curve"/>
    </contour>
    <contour>
      <point x="254" y="173" type="curve" smooth="yes"/>
      <point x="161" y="173"/>
      <point x="115" y="200"/>
      <point x="115" y="255" type="curve" smooth="yes"/>
      <point x="115" y="284"/>
      <point x="129" y="318"/>
      <point x="146" y="354" type="curve" smooth="yes"/>
      <point x="166" y="397"/>
      <point x="186" y="443"/>
      <point x="186" y="490" type="curve" smooth="yes"/>
      <point x="186" y="525"/>
      <point x="180" y="548"/>
      <point x="172" y="565" type="curve"/>
      <point x="145" y="550" type="line"/>
      <point x="424" y="550" type="line"/>
      <point x="424" y="298" type="line"/>
      <point x="416" y="221"/>
      <point x="360" y="173"/>
    </contour>
  </outline>
</glyph>
<glyph name="ra-takr" format="2">
  <advance width="420"/>
  <unicode hex="116A4"/>
  <anchor x="215" y="0" name="bottom"/>
  <anchor x="330" y="275" name="bottomright"/>
  <anchor x="180" y="684" name="top"/>
  <anchor x="310" y="648" name="topright"/>
  <outline>
    <contour>
      <point x="218" y="-12" type="curve" smooth="yes"/>
      <point x="293" y="-12"/>
      <point x="360" y="43"/>
      <point x="360" y="184" type="curve" smooth="yes"/>
      <point x="360" y="351"/>
      <point x="251" y="517"/>
      <point x="108" y="639" type="curve"/>
      <point x="60" y="582" type="line"/>
      <point x="120" y="528"/>
      <point x="169" y="471"/>
      <point x="206" y="413" type="curve"/>
      <point x="130" y="364"/>
      <point x="77" y="284"/>
      <point x="77" y="180" type="curve" smooth="yes"/>
      <point x="77" y="52"/>
      <point x="137" y="-12"/>
    </contour>
    <contour>
      <point x="218" y="63" type="curve" smooth="yes"/>
      <point x="183" y="63"/>
      <point x="157" y="100"/>
      <point x="157" y="183" type="curve" smooth="yes"/>
      <point x="157" y="261"/>
      <point x="186" y="311"/>
      <point x="242" y="348" type="curve"/>
      <point x="267" y="294"/>
      <point x="280" y="241"/>
      <point x="280" y="180" type="curve" smooth="yes"/>
      <point x="280" y="107"/>
      <point x="258" y="63"/>
    </contour>
  </outline>
</glyph>
<glyph name="la-takr" format="2">
  <advance width="727"/>
  <unicode hex="116A5"/>
  <anchor x="370" y="0" name="bottom"/>
  <anchor x="657" y="315" name="bottomright"/>
  <anchor x="355" y="684" name="top"/>
  <anchor x="540" y="648" name="topright"/>
  <outline>
    <contour>
      <point x="229" y="-17" type="curve"/>
      <point x="277" y="32" type="line"/>
      <point x="173" y="115"/>
      <point x="125" y="193"/>
      <point x="125" y="264" type="curve" smooth="yes"/>
      <point x="125" y="352"/>
      <point x="186" y="376"/>
      <point x="232" y="376" type="curve" smooth="yes"/>
      <point x="298" y="376"/>
      <point x="326" y="330"/>
      <point x="326" y="287" type="curve" smooth="yes"/>
      <point x="326" y="260" type="line"/>
      <point x="401" y="260" type="line"/>
      <point x="401" y="290" type="line" smooth="yes"/>
      <point x="401" y="336"/>
      <point x="435" y="376"/>
      <point x="505" y="376" type="curve" smooth="yes"/>
      <point x="551" y="376"/>
      <point x="602" y="352"/>
      <point x="602" y="264" type="curve" smooth="yes"/>
      <point x="602" y="193"/>
      <point x="564" y="115"/>
      <point x="460" y="32" type="curve"/>
      <point x="498" y="-17" type="line"/>
      <point x="592" y="51"/>
      <point x="687" y="142"/>
      <point x="687" y="272" type="curve" smooth="yes"/>
      <point x="687" y="353"/>
      <point x="630" y="449"/>
      <point x="513" y="449" type="curve" smooth="yes"/>
      <point x="441" y="449"/>
      <point x="392" y="422"/>
      <point x="363" y="389" type="curve"/>
      <point x="336" y="422"/>
      <point x="296" y="449"/>
      <point x="224" y="449" type="curve" smooth="yes"/>
      <point x="106" y="449"/>
      <point x="40" y="366"/>
      <point x="40" y="272" type="curve" smooth="yes"/>
      <point x="40" y="142"/>
      <point x="135" y="51"/>
    </contour>
    <contour>
      <point x="50" y="550" type="line"/>
      <point x="676" y="550" type="line"/>
      <point x="676" y="625" type="line"/>
      <point x="50" y="625" type="line"/>
    </contour>
  </outline>
</glyph>
<glyph name="va-takr" format="2">
  <advance width="504"/>
  <unicode hex="116A6"/>
  <anchor x="225" y="0" name="bottom"/>
  <anchor x="414" y="345" name="bottomright"/>
  <anchor x="245" y="684" name="top"/>
  <anchor x="370" y="648" name="topright"/>
  <outline>
    <contour>
      <point x="428" y="-20" type="curve"/>
      <point x="464" y="47" type="line"/>
      <point x="436" y="62"/>
      <point x="424" y="92"/>
      <point x="424" y="127" type="curve" smooth="yes"/>
      <point x="424" y="425" type="line"/>
      <point x="339" y="425" type="line"/>
      <point x="339" y="308" type="line" smooth="yes"/>
      <point x="339" y="262"/>
      <point x="303" y="212"/>
      <point x="214" y="212" type="curve" smooth="yes"/>
      <point x="153" y="212"/>
      <point x="115" y="248"/>
      <point x="115" y="291" type="curve" smooth="yes"/>
      <point x="115" y="332"/>
      <point x="147" y="360"/>
      <point x="181" y="389" type="curve" smooth="yes"/>
      <point x="228" y="428"/>
      <point x="256" y="463"/>
      <point x="256" y="516" type="curve" smooth="yes"/>
      <point x="256" y="578"/>
      <point x="217" y="632"/>
      <point x="71" y="635" type="curve"/>
      <point x="59" y="565" type="line"/>
      <point x="160" y="562"/>
      <point x="171" y="535"/>
      <point x="171" y="506" type="curve" smooth="yes"/>
      <point x="171" y="478"/>
      <point x="145" y="454"/>
      <point x="111" y="423" type="curve" smooth="yes"/>
      <point x="76" y="392"/>
      <point x="30" y="350"/>
      <point x="30" y="284" type="curve" smooth="yes"/>
      <point x="30" y="212"/>
      <point x="84" y="139"/>
      <point x="209" y="139" type="curve" smooth="yes"/>
      <point x="255" y="139"/>
      <point x="303" y="155"/>
      <point x="339" y="183" type="curve"/>
      <point x="339" y="125" type="line" smooth="yes"/>
      <point x="339" y="53"/>
      <point x="364" y="7"/>
    </contour>
  </outline>
</glyph>
<glyph name="sha-takr" format="2">
  <advance width="664"/>
  <unicode hex="116A7"/>
  <anchor x="360" y="0" name="bottom"/>
  <anchor x="574" y="455" name="bottomright"/>
  <anchor x="310" y="684" name="top"/>
  <anchor x="500" y="648" name="topright"/>
  <outline>
    <contour>
      <point x="296" y="-42" type="curve"/>
      <point x="364" y="-11" type="line"/>
      <point x="348" y="24"/>
      <point x="329" y="64"/>
      <point x="305" y="100" type="curve"/>
      <point x="360" y="145"/>
      <point x="413" y="224"/>
      <point x="413" y="335" type="curve" smooth="yes"/>
      <point x="413" y="427"/>
      <point x="386" y="526"/>
      <point x="289" y="559" type="curve"/>
      <point x="280" y="550" type="line"/>
      <point x="499" y="550" type="line"/>
      <point x="499" y="125" type="line" smooth="yes"/>
      <point x="499" y="53"/>
      <point x="524" y="7"/>
      <point x="588" y="-20" type="curve"/>
      <point x="624" y="47" type="line"/>
      <point x="596" y="62"/>
      <point x="584" y="92"/>
      <point x="584" y="127" type="curve" smooth="yes"/>
      <point x="584" y="625" type="line"/>
      <point x="30" y="625" type="line"/>
      <point x="30" y="550" type="line"/>
      <point x="167" y="550" type="line"/>
      <point x="159" y="559" type="line"/>
      <point x="111" y="542"/>
      <point x="77" y="504"/>
      <point x="77" y="446" type="curve" smooth="yes"/>
      <point x="77" y="364"/>
      <point x="134" y="322"/>
      <point x="222" y="322" type="curve" smooth="yes"/>
      <point x="255" y="322"/>
      <point x="295" y="332"/>
      <point x="329" y="349" type="curve"/>
      <point x="329" y="340"/>
      <point x="329" y="332"/>
      <point x="329" y="323" type="curve" smooth="yes"/>
      <point x="329" y="254"/>
      <point x="304" y="192"/>
      <point x="258" y="156" type="curve"/>
      <point x="226" y="188"/>
      <point x="188" y="209"/>
      <point x="143" y="209" type="curve" smooth="yes"/>
      <point x="99" y="209"/>
      <point x="78" y="180"/>
      <point x="78" y="149" type="curve" smooth="yes"/>
      <point x="78" y="113"/>
      <point x="119" y="62"/>
      <point x="193" y="62" type="curve" smooth="yes"/>
      <point x="206" y="62"/>
      <point x="220" y="64"/>
      <point x="235" y="68" type="curve"/>
      <point x="255" y="50"/>
      <point x="281" y="-3"/>
    </contour>
    <contour>
      <point x="221" y="402" type="curve" smooth="yes"/>
      <point x="191" y="402"/>
      <point x="159" y="419"/>
      <point x="159" y="451" type="curve" smooth="yes"/>
      <point x="159" y="480"/>
      <point x="178" y="499"/>
      <point x="218" y="499" type="curve" smooth="yes"/>
      <point x="273" y="499"/>
      <point x="302" y="466"/>
      <point x="316" y="424" type="curve"/>
      <point x="291" y="411"/>
      <point x="261" y="402"/>
    </contour>
  </outline>
</glyph>
<glyph name="sa-takr" format="2">
  <advance width="611"/>
  <unicode hex="116A8"/>
  <anchor x="330" y="0" name="bottom"/>
  <anchor x="519" y="365" name="bottomright"/>
  <anchor x="280" y="684" name="top"/>
  <anchor x="450" y="648" name="topright"/>
  <outline>
    <contour>
      <point x="535" y="-20" type="curve"/>
      <point x="571" y="47" type="line"/>
      <point x="543" y="62"/>
      <point x="531" y="92"/>
      <point x="531" y="127" type="curve" smooth="yes"/>
      <point x="531" y="312" type="line" smooth="yes"/>
      <point x="531" y="466"/>
      <point x="450" y="512"/>
      <point x="358" y="512" type="curve" smooth="yes"/>
      <point x="294" y="512"/>
      <point x="249" y="494"/>
      <point x="204" y="465" type="curve"/>
      <point x="186" y="495"/>
      <point x="166" y="523"/>
      <point x="145" y="550" type="curve"/>
      <point x="551" y="550" type="line"/>
      <point x="551" y="625" type="line"/>
      <point x="30" y="625" type="line"/>
      <point x="30" y="550" type="line"/>
      <point x="53" y="550" type="line"/>
      <point x="91" y="508"/>
      <point x="123" y="464"/>
      <point x="148" y="420" type="curve"/>
      <point x="80" y="351"/>
      <point x="47" y="256"/>
      <point x="47" y="168" type="curve" smooth="yes"/>
      <point x="47" y="49"/>
      <point x="96" y="-12"/>
      <point x="165" y="-12" type="curve" smooth="yes"/>
      <point x="238" y="-12"/>
      <point x="290" y="45"/>
      <point x="290" y="176" type="curve" smooth="yes"/>
      <point x="290" y="259"/>
      <point x="271" y="331"/>
      <point x="240" y="398" type="curve"/>
      <point x="273" y="421"/>
      <point x="314" y="436"/>
      <point x="354" y="436" type="curve" smooth="yes"/>
      <point x="404" y="436"/>
      <point x="446" y="408"/>
      <point x="446" y="303" type="curve" smooth="yes"/>
      <point x="446" y="125" type="line" smooth="yes"/>
      <point x="446" y="53"/>
      <point x="471" y="7"/>
    </contour>
    <contour>
      <point x="168" y="63" type="curve" smooth="yes"/>
      <point x="137" y="63"/>
      <point x="127" y="103"/>
      <point x="127" y="168" type="curve" smooth="yes"/>
      <point x="127" y="231"/>
      <point x="145" y="293"/>
      <point x="183" y="344" type="curve"/>
      <point x="201" y="291"/>
      <point x="210" y="240"/>
      <point x="210" y="172" type="curve" smooth="yes"/>
      <point x="210" y="105"/>
      <point x="199" y="63"/>
    </contour>
  </outline>
</glyph>
<glyph name="ha-takr" format="2">
  <advance width="524"/>
  <unicode hex="116A9"/>
  <anchor x="275" y="0" name="bottom"/>
  <anchor x="434" y="475" name="bottomright"/>
  <anchor x="265" y="684" name="top"/>
  <anchor x="460" y="648" name="topright"/>
  <outline>
    <contour>
      <point x="275" y="-12" type="curve" smooth="yes"/>
      <point x="409" y="-12"/>
      <point x="484" y="76"/>
      <point x="484" y="199" type="curve" smooth="yes"/>
      <point x="484" y="282"/>
      <point x="441" y="333"/>
      <point x="381" y="361" type="curve"/>
      <point x="421" y="388"/>
      <point x="448" y="429"/>
      <point x="448" y="487" type="curve" smooth="yes"/>
      <point x="448" y="572"/>
      <point x="397" y="625"/>
      <point x="262" y="625" type="curve" smooth="yes"/>
      <point x="169" y="625" type="line"/>
      <point x="169" y="550" type="line"/>
      <point x="254" y="550" type="line" smooth="yes"/>
      <point x="331" y="550"/>
      <point x="363" y="522"/>
      <point x="363" y="479" type="curve" smooth="yes"/>
      <point x="363" y="403"/>
      <point x="302" y="390"/>
      <point x="258" y="390" type="curve" smooth="yes"/>
      <point x="238" y="390" type="line"/>
      <point x="238" y="315" type="line"/>
      <point x="267" y="315" type="line" smooth="yes"/>
      <point x="353" y="315"/>
      <point x="399" y="269"/>
      <point x="399" y="190" type="curve" smooth="yes"/>
      <point x="399" y="113"/>
      <point x="352" y="63"/>
      <point x="278" y="63" type="curve" smooth="yes"/>
      <point x="168" y="63"/>
      <point x="113" y="164"/>
      <point x="77" y="356" type="curve"/>
      <point x="10" y="339" type="line"/>
      <point x="35" y="142"/>
      <point x="99" y="-12"/>
    </contour>
  </outline>
</glyph>
<glyph name="anusvara-takr" format="2">
  <unicode hex="116AB"/>
  <anchor x="0" y="654" name="_top"/>
  <anchor x="0" y="844" name="top"/>
  <outline>
    <contour>
      <point x="0" y="684" type="curve" smooth="yes"/>
      <point x="35" y="684"/>
      <point x="65" y="712"/>
      <point x="65" y="749" type="curve" smooth="yes"/>
      <point x="65" y="784"/>
      <point x="35" y="814"/>
      <point x="0" y="814" type="curve" smooth="yes"/>
      <point x="-36" y="814"/>
      <point x="-65" y="784"/>
      <point x="-65" y="749" type="curve" smooth="yes"/>
      <point x="-65" y="712"/>
      <point x="-36" y="684"/>
    </contour>
  </outline>
</glyph>
<glyph name="visarga-takr" format="2">
  <advance width="240"/>
  <unicode hex="116AC"/>
  <outline>
    <contour>
      <point x="95" y="390" type="curve" smooth="yes"/>
      <point x="130" y="390"/>
      <point x="160" y="418"/>
      <point x="160" y="455" type="curve" smooth="yes"/>
      <point x="160" y="490"/>
      <point x="130" y="520"/>
      <point x="95" y="520" type="curve" smooth="yes"/>
      <point x="59" y="520"/>
      <point x="30" y="490"/>
      <point x="30" y="455" type="curve" smooth="yes"/>
      <point x="30" y="418"/>
      <point x="59" y="390"/>
    </contour>
    <contour>
      <point x="95" y="70" type="curve" smooth="yes"/>
      <point x="130" y="70"/>
      <point x="160" y="98"/>
      <point x="160" y="135" type="curve" smooth="yes"/>
      <point x="160" y="170"/>
      <point x="130" y="200"/>
      <point x="95" y="200" type="curve" smooth="yes"/>
      <point x="59" y="200"/>
      <point x="30" y="170"/>
      <point x="30" y="135" type="curve" smooth="yes"/>
      <point x="30" y="98"/>
      <point x="59" y="70"/>
    </contour>
  </outline>
</glyph>
<glyph name="aaMatra-takr" format="2">
  <unicode hex="116AD"/>
  <anchor x="-110" y="684" name="_topright"/>
  <anchor x="81" y="640" name="top"/>
  <outline>
    <contour>
      <point x="-163" y="660" type="line"/>
      <point x="-78" y="660" type="line"/>
      <point x="33" y="905" type="line"/>
      <point x="-52" y="905" type="line"/>
    </contour>
  </outline>
</glyph>
<glyph name="iMatra-takr" format="2">
  <advance width="304"/>
  <unicode hex="116AE"/>
  <outline>
    <contour>
      <point x="80" y="-120" type="line"/>
      <point x="165" y="-120" type="line"/>
      <point x="165" y="638" type="line" smooth="yes"/>
      <point x="165" y="760"/>
      <point x="224" y="805"/>
      <point x="304" y="805" type="curve" smooth="yes"/>
      <point x="406" y="805"/>
      <point x="451" y="734"/>
      <point x="451" y="655" type="curve" smooth="yes"/>
      <point x="451" y="567" type="line"/>
      <point x="536" y="567" type="line"/>
      <point x="536" y="660" type="line" smooth="yes"/>
      <point x="536" y="762"/>
      <point x="464" y="880"/>
      <point x="301" y="880" type="curve" smooth="yes"/>
      <point x="165" y="880"/>
      <point x="80" y="801"/>
      <point x="80" y="644" type="curve" smooth="yes"/>
    </contour>
  </outline>
</glyph>
<glyph name="iiMatra-takr" format="2">
  <advance width="356"/>
  <unicode hex="116AF"/>
  <anchor x="377" y="685" name="top"/>
  <outline>
    <contour>
      <point x="171" y="-120" type="line"/>
      <point x="256" y="-120" type="line"/>
      <point x="256" y="644" type="line" smooth="yes"/>
      <point x="256" y="789"/>
      <point x="180" y="880"/>
      <point x="35" y="880" type="curve" smooth="yes"/>
      <point x="-128" y="880"/>
      <point x="-200" y="762"/>
      <point x="-200" y="660" type="curve" smooth="yes"/>
      <point x="-200" y="582" type="line"/>
      <point x="-115" y="582" type="line"/>
      <point x="-115" y="655" type="line" smooth="yes"/>
      <point x="-115" y="734"/>
      <point x="-70" y="805"/>
      <point x="35" y="805" type="curve" smooth="yes"/>
      <point x="125" y="805"/>
      <point x="171" y="753"/>
      <point x="171" y="638" type="curve" smooth="yes"/>
    </contour>
  </outline>
</glyph>
<glyph name="uMatra-takr" format="2">
  <unicode hex="116B0"/>
  <anchor x="0" y="0" name="_bottom"/>
  <anchor x="0" y="-230" name="bottom"/>
  <outline>
    <contour>
      <point x="0" y="-181" type="curve" smooth="yes"/>
      <point x="80" y="-181"/>
      <point x="158" y="-172"/>
      <point x="229" y="-133" type="curve"/>
      <point x="208" y="-74" type="line"/>
      <point x="142" y="-108"/>
      <point x="90" y="-116"/>
      <point x="0" y="-116" type="curve" smooth="yes"/>
      <point x="-90" y="-116"/>
      <point x="-139" y="-100"/>
      <point x="-189" y="-74" type="curve"/>
      <point x="-210" y="-133" type="line"/>
      <point x="-159" y="-165"/>
      <point x="-80" y="-181"/>
    </contour>
  </outline>
</glyph>
<glyph name="uuMatra-takr" format="2">
  <unicode hex="116B1"/>
  <anchor x="1" y="0" name="_bottom"/>
  <anchor x="1" y="-340" name="bottom"/>
  <outline>
    <contour>
      <point x="0" y="-181" type="curve" smooth="yes"/>
      <point x="80" y="-181"/>
      <point x="158" y="-172"/>
      <point x="229" y="-133" type="curve"/>
      <point x="208" y="-74" type="line"/>
      <point x="142" y="-108"/>
      <point x="90" y="-116"/>
      <point x="0" y="-116" type="curve" smooth="yes"/>
      <point x="-90" y="-116"/>
      <point x="-139" y="-100"/>
      <point x="-189" y="-74" type="curve"/>
      <point x="-210" y="-133" type="line"/>
      <point x="-159" y="-165"/>
      <point x="-80" y="-181"/>
    </contour>
    <contour>
      <point x="0" y="-291" type="curve" smooth="yes"/>
      <point x="80" y="-291"/>
      <point x="158" y="-282"/>
      <point x="229" y="-243" type="curve"/>
      <point x="208" y="-184" type="line"/>
      <point x="142" y="-218"/>
      <point x="90" y="-226"/>
      <point x="0" y="-226" type="curve" smooth="yes"/>
      <point x="-90" y="-226"/>
      <point x="-139" y="-210"/>
      <point x="-189" y="-184" type="curve"/>
      <point x="-210" y="-243" type="line"/>
      <point x="-159" y="-275"/>
      <point x="-80" y="-291"/>
    </contour>
  </outline>
</glyph>
<glyph name="eMatra-takr" format="2">
  <unicode hex="116B2"/>
  <anchor x="0" y="684" name="_top"/>
  <anchor x="0" y="814" name="top"/>
  <outline>
    <contour>
      <point x="-182" y="710" type="line"/>
      <point x="182" y="710" type="line"/>
      <point x="182" y="769" type="line"/>
      <point x="-182" y="769" type="line"/>
    </contour>
  </outline>
</glyph>
<glyph name="aiMatra-takr" format="2">
  <unicode hex="116B3"/>
  <anchor x="0" y="684" name="_top"/>
  <anchor x="0" y="914" name="top"/>
  <outline>
    <contour>
      <point x="-182" y="815" type="line"/>
      <point x="182" y="815" type="line"/>
      <point x="182" y="874" type="line"/>
      <point x="-182" y="874" type="line"/>
    </contour>
    <contour>
      <point x="-182" y="710" type="line"/>
      <point x="182" y="710" type="line"/>
      <point x="182" y="769" type="line"/>
      <point x="-182" y="769" type="line"/>
    </contour>
  </outline>
</glyph>
<glyph name="oMatra-takr" format="2">
  <unicode hex="116B4"/>
  <anchor x="0" y="684" name="_top"/>
  <anchor x="0" y="834" name="top"/>
  <outline>
    <contour>
      <point x="-236" y="684" type="curve"/>
      <point x="-172" y="684" type="line"/>
      <point x="-167" y="719"/>
      <point x="-137" y="745"/>
      <point x="-101" y="745" type="curve" smooth="yes"/>
      <point x="-68" y="745"/>
      <point x="-34" y="723"/>
      <point x="-26" y="692" type="curve"/>
      <point x="30" y="692" type="line"/>
      <point x="38" y="723"/>
      <point x="72" y="745"/>
      <point x="105" y="745" type="curve" smooth="yes"/>
      <point x="141" y="745"/>
      <point x="171" y="719"/>
      <point x="176" y="684" type="curve"/>
      <point x="240" y="684" type="line"/>
      <point x="240" y="754"/>
      <point x="183" y="810"/>
      <point x="108" y="810" type="curve" smooth="yes"/>
      <point x="64" y="810"/>
      <point x="26" y="790"/>
      <point x="2" y="760" type="curve"/>
      <point x="-22" y="790"/>
      <point x="-60" y="810"/>
      <point x="-104" y="810" type="curve" smooth="yes"/>
      <point x="-179" y="810"/>
      <point x="-236" y="754"/>
    </contour>
  </outline>
</glyph>
<glyph name="virama-takr" format="2">
  <unicode hex="116B6"/>
  <anchor x="-55" y="648" name="_topright"/>
  <outline>
    <contour>
      <point x="-40" y="665" type="line"/>
      <point x="0" y="718" type="line"/>
      <point x="-284" y="930" type="line"/>
      <point x="-324" y="876" type="line"/>
    </contour>
  </outline>
</glyph>
<glyph name="digitOne-takr" format="2">
  <advance width="596"/>
  <unicode hex="116C1"/>
  <outline>
    <contour>
      <point x="224" y="-12" type="curve" smooth="yes"/>
      <point x="306" y="-12"/>
      <point x="357" y="42"/>
      <point x="357" y="116" type="curve" smooth="yes"/>
      <point x="357" y="237"/>
      <point x="247" y="266"/>
      <point x="165" y="284" type="curve"/>
      <point x="165" y="360" type="line" smooth="yes"/>
      <point x="165" y="439"/>
      <point x="200" y="510"/>
      <point x="302" y="510" type="curve" smooth="yes"/>
      <point x="382" y="510"/>
      <point x="431" y="465"/>
      <point x="431" y="343" type="curve" smooth="yes"/>
      <point x="431" y="0" type="line"/>
      <point x="516" y="0" type="line"/>
      <point x="516" y="349" type="line" smooth="yes"/>
      <point x="516" y="486"/>
      <point x="454" y="585"/>
      <point x="301" y="585" type="curve" smooth="yes"/>
      <point x="142" y="585"/>
      <point x="80" y="467"/>
      <point x="80" y="365" type="curve" smooth="yes"/>
      <point x="80" y="230" type="line" smooth="yes"/>
      <point x="80" y="75"/>
      <point x="117" y="-12"/>
    </contour>
    <contour>
      <point x="226" y="63" type="curve" smooth="yes"/>
      <point x="190" y="63"/>
      <point x="165" y="91"/>
      <point x="165" y="204" type="curve"/>
      <point x="208" y="196"/>
      <point x="275" y="182"/>
      <point x="275" y="120" type="curve" smooth="yes"/>
      <point x="275" y="79"/>
      <point x="259" y="63"/>
    </contour>
  </outline>
</glyph>
<glyph name="digitTwo-takr" format="2">
  <advance width="541"/>
  <unicode hex="116C2"/>
  <outline>
    <contour>
      <point x="265" y="-12" type="curve" smooth="yes"/>
      <point x="433" y="-12"/>
      <point x="501" y="77"/>
      <point x="501" y="169" type="curve" smooth="yes"/>
      <point x="501" y="240"/>
      <point x="463" y="300"/>
      <point x="404" y="324" type="curve"/>
      <point x="445" y="351"/>
      <point x="471" y="390"/>
      <point x="471" y="441" type="curve" smooth="yes"/>
      <point x="471" y="534"/>
      <point x="397" y="585"/>
      <point x="275" y="585" type="curve" smooth="yes"/>
      <point x="239" y="585"/>
      <point x="197" y="576"/>
      <point x="175" y="566" type="curve"/>
      <point x="195" y="494" type="line"/>
      <point x="217" y="502"/>
      <point x="244" y="510"/>
      <point x="284" y="510" type="curve" smooth="yes"/>
      <point x="343" y="510"/>
      <point x="386" y="490"/>
      <point x="386" y="444" type="curve" smooth="yes"/>
      <point x="386" y="393"/>
      <point x="355" y="355"/>
      <point x="273" y="355" type="curve" smooth="yes"/>
      <point x="245" y="355" type="line"/>
      <point x="245" y="280" type="line"/>
      <point x="272" y="280" type="line" smooth="yes"/>
      <point x="377" y="280"/>
      <point x="416" y="234"/>
      <point x="416" y="169" type="curve" smooth="yes"/>
      <point x="416" y="102"/>
      <point x="365" y="63"/>
      <point x="270" y="63" type="curve" smooth="yes"/>
      <point x="170" y="63"/>
      <point x="113" y="115"/>
      <point x="61" y="189" type="curve"/>
      <point x="5" y="146" type="line"/>
      <point x="52" y="62"/>
      <point x="140" y="-12"/>
    </contour>
  </outline>
</glyph>
<glyph name="digitThree-takr" format="2">
  <advance width="468"/>
  <unicode hex="116C3"/>
  <outline>
    <contour>
      <point x="294" y="-106" type="curve"/>
      <point x="363" y="-73" type="line"/>
      <point x="355" y="-40"/>
      <point x="346" y="-8"/>
      <point x="337" y="21" type="curve"/>
      <point x="396" y="55"/>
      <point x="428" y="112"/>
      <point x="428" y="189" type="curve" smooth="yes"/>
      <point x="428" y="253"/>
      <point x="390" y="314"/>
      <point x="325" y="337" type="curve"/>
      <point x="363" y="360"/>
      <point x="386" y="394"/>
      <point x="386" y="441" type="curve" smooth="yes"/>
      <point x="386" y="534"/>
      <point x="322" y="585"/>
      <point x="196" y="585" type="curve" smooth="yes"/>
      <point x="174" y="585"/>
      <point x="112" y="577"/>
      <point x="90" y="566" type="curve"/>
      <point x="110" y="494" type="line"/>
      <point x="132" y="502"/>
      <point x="159" y="510"/>
      <point x="199" y="510" type="curve" smooth="yes"/>
      <point x="258" y="510"/>
      <point x="301" y="490"/>
      <point x="301" y="444" type="curve" smooth="yes"/>
      <point x="301" y="392"/>
      <point x="275" y="370"/>
      <point x="185" y="370" type="curve" smooth="yes"/>
      <point x="142" y="370" type="line"/>
      <point x="142" y="295" type="line"/>
      <point x="176" y="295" type="line" smooth="yes"/>
      <point x="303" y="295"/>
      <point x="343" y="246"/>
      <point x="343" y="190" type="curve" smooth="yes"/>
      <point x="343" y="151"/>
      <point x="329" y="123"/>
      <point x="307" y="103" type="curve"/>
      <point x="275" y="170"/>
      <point x="230" y="211"/>
      <point x="151" y="211" type="curve" smooth="yes"/>
      <point x="76" y="211"/>
      <point x="30" y="160"/>
      <point x="30" y="105" type="curve" smooth="yes"/>
      <point x="30" y="37"/>
      <point x="83" y="-12"/>
      <point x="186" y="-12" type="curve" smooth="yes"/>
      <point x="214" y="-12"/>
      <point x="240" y="-10"/>
      <point x="264" y="-5" type="curve"/>
      <point x="273" y="-33"/>
      <point x="283" y="-66"/>
    </contour>
    <contour>
      <point x="180" y="63" type="curve" smooth="yes"/>
      <point x="136" y="63"/>
      <point x="111" y="79"/>
      <point x="111" y="103" type="curve" smooth="yes"/>
      <point x="111" y="122"/>
      <point x="126" y="138"/>
      <point x="152" y="138" type="curve" smooth="yes"/>
      <point x="182" y="138"/>
      <point x="207" y="124"/>
      <point x="234" y="68" type="curve"/>
      <point x="217" y="65"/>
      <point x="198" y="63"/>
    </contour>
  </outline>
</glyph>
<glyph name="digitFour-takr" format="2">
  <advance width="525"/>
  <unicode hex="116C4"/>
  <outline>
    <contour>
      <point x="261" y="-12" type="curve" smooth="yes"/>
      <point x="376" y="-12"/>
      <point x="445" y="54"/>
      <point x="445" y="142" type="curve" smooth="yes"/>
      <point x="445" y="231"/>
      <point x="376" y="279"/>
      <point x="304" y="326" type="curve"/>
      <point x="298" y="289" type="line"/>
      <point x="417" y="354"/>
      <point x="465" y="414"/>
      <point x="465" y="501" type="curve" smooth="yes"/>
      <point x="465" y="575" type="line"/>
      <point x="380" y="575" type="line"/>
      <point x="380" y="514" type="line" smooth="yes"/>
      <point x="380" y="432"/>
      <point x="337" y="386"/>
      <point x="234" y="341" type="curve"/>
      <point x="289" y="341" type="line"/>
      <point x="188" y="386"/>
      <point x="145" y="432"/>
      <point x="145" y="514" type="curve" smooth="yes"/>
      <point x="145" y="575" type="line"/>
      <point x="60" y="575" type="line"/>
      <point x="60" y="501" type="line" smooth="yes"/>
      <point x="60" y="414"/>
      <point x="108" y="354"/>
      <point x="227" y="291" type="curve"/>
      <point x="221" y="327" type="line"/>
      <point x="149" y="280"/>
      <point x="80" y="231"/>
      <point x="80" y="142" type="curve" smooth="yes"/>
      <point x="80" y="55"/>
      <point x="147" y="-12"/>
    </contour>
    <contour>
      <point x="262" y="63" type="curve" smooth="yes"/>
      <point x="200" y="63"/>
      <point x="165" y="92"/>
      <point x="165" y="142" type="curve" smooth="yes"/>
      <point x="165" y="202"/>
      <point x="221" y="243"/>
      <point x="285" y="287" type="curve"/>
      <point x="239" y="287" type="line"/>
      <point x="303" y="243"/>
      <point x="360" y="202"/>
      <point x="360" y="142" type="curve" smooth="yes"/>
      <point x="360" y="92"/>
      <point x="319" y="63"/>
    </contour>
  </outline>
</glyph>
<glyph name="digitFive-takr" format="2">
  <advance width="531"/>
  <unicode hex="116C5"/>
  <outline>
    <contour>
      <point x="366" y="0" type="line"/>
      <point x="451" y="0" type="line"/>
      <point x="451" y="575" type="line"/>
      <point x="366" y="575" type="line"/>
      <point x="366" y="456" type="line"/>
      <point x="356" y="408"/>
      <point x="313" y="342"/>
      <point x="235" y="342" type="curve" smooth="yes"/>
      <point x="166" y="342"/>
      <point x="125" y="403"/>
      <point x="125" y="526" type="curve" smooth="yes"/>
      <point x="125" y="575" type="line"/>
      <point x="40" y="575" type="line"/>
      <point x="40" y="526" type="line" smooth="yes"/>
      <point x="40" y="384"/>
      <point x="101" y="269"/>
      <point x="225" y="269" type="curve" smooth="yes"/>
      <point x="295" y="269"/>
      <point x="336" y="294"/>
      <point x="366" y="322" type="curve"/>
    </contour>
  </outline>
</glyph>
<glyph name="digitSix-takr" format="2">
  <advance width="516"/>
  <unicode hex="116C6"/>
  <outline>
    <contour>
      <point x="371" y="0" type="line"/>
      <point x="456" y="0" type="line"/>
      <point x="456" y="59" type="line" smooth="yes"/>
      <point x="456" y="141"/>
      <point x="392" y="205"/>
      <point x="327" y="264" type="curve"/>
      <point x="370" y="311"/>
      <point x="396" y="375"/>
      <point x="396" y="446" type="curve" smooth="yes"/>
      <point x="396" y="532"/>
      <point x="338" y="585"/>
      <point x="252" y="585" type="curve" smooth="yes"/>
      <point x="158" y="585"/>
      <point x="111" y="521"/>
      <point x="111" y="453" type="curve" smooth="yes"/>
      <point x="111" y="368"/>
      <point x="164" y="309"/>
      <point x="222" y="252" type="curve"/>
      <point x="225" y="278" type="line"/>
      <point x="196" y="259"/>
      <point x="162" y="251"/>
      <point x="129" y="251" type="curve" smooth="yes"/>
      <point x="94" y="251"/>
      <point x="63" y="257"/>
      <point x="35" y="269" type="curve"/>
      <point x="5" y="203" type="line"/>
      <point x="40" y="185"/>
      <point x="78" y="176"/>
      <point x="127" y="176" type="curve" smooth="yes"/>
      <point x="177" y="176"/>
      <point x="225" y="190"/>
      <point x="265" y="214" type="curve"/>
      <point x="321" y="164"/>
      <point x="371" y="112"/>
      <point x="371" y="37" type="curve" smooth="yes"/>
    </contour>
    <contour>
      <point x="270" y="318" type="curve"/>
      <point x="228" y="360"/>
      <point x="196" y="402"/>
      <point x="196" y="451" type="curve" smooth="yes"/>
      <point x="196" y="481"/>
      <point x="214" y="510"/>
      <point x="254" y="510" type="curve" smooth="yes"/>
      <point x="292" y="510"/>
      <point x="311" y="483"/>
      <point x="311" y="448" type="curve" smooth="yes"/>
      <point x="311" y="393"/>
      <point x="295" y="361"/>
    </contour>
  </outline>
</glyph>
<glyph name="digitSeven-takr" format="2">
  <advance width="398"/>
  <unicode hex="116C7"/>
  <outline>
    <contour>
      <point x="233" y="0" type="line"/>
      <point x="318" y="0" type="line"/>
      <point x="318" y="399" type="line" smooth="yes"/>
      <point x="318" y="550"/>
      <point x="242" y="575"/>
      <point x="168" y="575" type="curve" smooth="yes"/>
      <point x="92" y="575"/>
      <point x="30" y="520"/>
      <point x="30" y="436" type="curve" smooth="yes"/>
      <point x="30" y="353"/>
      <point x="70" y="282"/>
      <point x="183" y="282" type="curve" smooth="yes"/>
      <point x="196" y="282"/>
      <point x="215" y="284"/>
      <point x="233" y="287" type="curve"/>
    </contour>
    <contour>
      <point x="180" y="357" type="curve" smooth="yes"/>
      <point x="135" y="357"/>
      <point x="113" y="388"/>
      <point x="113" y="435" type="curve" smooth="yes"/>
      <point x="113" y="466"/>
      <point x="127" y="500"/>
      <point x="171" y="500" type="curve" smooth="yes"/>
      <point x="214" y="500"/>
      <point x="233" y="473"/>
      <point x="233" y="402" type="curve" smooth="yes"/>
      <point x="233" y="363" type="line"/>
      <point x="218" y="358"/>
      <point x="205" y="357"/>
    </contour>
  </outline>
</glyph>
<glyph name="digitEight-takr" format="2">
  <advance width="454"/>
  <unicode hex="116C8"/>
  <outline>
    <contour>
      <point x="228" y="-12" type="curve" smooth="yes"/>
      <point x="350" y="-12"/>
      <point x="414" y="72"/>
      <point x="414" y="155" type="curve" smooth="yes"/>
      <point x="414" y="261"/>
      <point x="337" y="294"/>
      <point x="265" y="322" type="curve" smooth="yes"/>
      <point x="200" y="347"/>
      <point x="138" y="371"/>
      <point x="138" y="432" type="curve" smooth="yes"/>
      <point x="138" y="469"/>
      <point x="169" y="500"/>
      <point x="223" y="500" type="curve" smooth="yes"/>
      <point x="280" y="500"/>
      <point x="310" y="478"/>
      <point x="329" y="456" type="curve"/>
      <point x="394" y="496" type="line"/>
      <point x="363" y="540"/>
      <point x="308" y="575"/>
      <point x="229" y="575" type="curve" smooth="yes"/>
      <point x="105" y="575"/>
      <point x="52" y="496"/>
      <point x="52" y="431" type="curve" smooth="yes"/>
      <point x="52" y="338"/>
      <point x="134" y="296"/>
      <point x="207" y="268" type="curve" smooth="yes"/>
      <point x="270" y="244"/>
      <point x="329" y="220"/>
      <point x="329" y="155" type="curve" smooth="yes"/>
      <point x="329" y="95"/>
      <point x="286" y="63"/>
      <point x="220" y="63" type="curve" smooth="yes"/>
      <point x="158" y="63"/>
      <point x="129" y="88"/>
      <point x="100" y="126" type="curve"/>
      <point x="40" y="85" type="line"/>
      <point x="59" y="46"/>
      <point x="105" y="-12"/>
    </contour>
  </outline>
</glyph>
<glyph name="ha.pst" format="2">
  <anchor x="-30" y="455" name="_bottomright"/>
  <outline>
    <contour>
      <point x="76" y="100" type="line"/>
      <point x="161" y="100" type="line"/>
      <point x="161" y="275" type="line" smooth="yes"/>
      <point x="161" y="441"/>
      <point x="99" y="491"/>
      <point x="8" y="491" type="curve" smooth="yes"/>
      <point x="-6" y="491"/>
      <point x="-19" y="491"/>
      <point x="-30" y="489" type="curve"/>
      <point x="-30" y="416" type="line"/>
      <point x="-22" y="417"/>
      <point x="-12" y="418"/>
      <point x="-5" y="418" type="curve" smooth="yes"/>
      <point x="43" y="418"/>
      <point x="76" y="395"/>
      <point x="76" y="275" type="curve" smooth="yes"/>
    </contour>
  </outline>
</glyph>
<glyph name="ra.blw" format="2">
  <anchor x="-125" y="0" name="_bottom"/>
  <anchor x="-125" y="-320" name="bottom"/>
  <outline>
    <contour>
      <point x="-238" y="-277" type="curve" smooth="yes"/>
      <point x="-118" y="-277"/>
      <point x="-87" y="-186"/>
      <point x="-83" y="-123" type="curve"/>
      <point x="-160" y="-110" type="line"/>
      <point x="-161" y="-126"/>
      <point x="-163" y="-138"/>
      <point x="-167" y="-152" type="curve"/>
      <point x="-184" y="-146"/>
      <point x="-211" y="-142"/>
      <point x="-238" y="-142" type="curve" smooth="yes"/>
      <point x="-287" y="-142"/>
      <point x="-330" y="-170"/>
      <point x="-330" y="-210" type="curve" smooth="yes"/>
      <point x="-330" y="-245"/>
      <point x="-303" y="-277"/>
    </contour>
    <contour>
      <point x="-23" y="-304" type="curve"/>
      <point x="16" y="-247" type="line"/>
      <point x="-48" y="-184"/>
      <point x="-137" y="-159"/>
      <point x="-164" y="-155" type="curve"/>
      <point x="-177" y="-230" type="line"/>
      <point x="-113" y="-239"/>
      <point x="-65" y="-270"/>
    </contour>
  </outline>
</glyph>
<glyph name="ya.blw" format="2">
  <anchor x="-160" y="0" name="_bottom"/>
  <anchor x="-160" y="-320" name="bottom"/>
  <outline>
    <contour>
      <point x="-142" y="-298" type="curve" smooth="yes"/>
      <point x="-45" y="-298"/>
      <point x="19" y="-226"/>
      <point x="61" y="-158" type="curve"/>
      <point x="4" y="-122" type="line"/>
      <point x="-41" y="-186"/>
      <point x="-86" y="-233"/>
      <point x="-138" y="-233" type="curve" smooth="yes"/>
      <point x="-172" y="-233"/>
      <point x="-191" y="-215"/>
      <point x="-191" y="-184" type="curve" smooth="yes"/>
      <point x="-191" y="-148"/>
      <point x="-162" y="-125"/>
      <point x="-117" y="-112" type="curve"/>
      <point x="-141" y="-48" type="line"/>
      <point x="-216" y="-69"/>
      <point x="-266" y="-119"/>
      <point x="-266" y="-191" type="curve" smooth="yes"/>
      <point x="-266" y="-259"/>
      <point x="-212" y="-298"/>
    </contour>
  </outline>
</glyph>
